M48
;GenerationSoftware,Autodesk,EAGLE,9.4.2*%
;CreationDate,2020-07-30T16:21:15Z*%
FMAT,2
ICI,OFF
METRIC,TZ,000.000
T2C0.200
T1C0.203
%
G90
M71
T1
X20193Y3175
X19431Y13843
X1778Y3302
X9271Y18669
X17653Y14986
X7493Y13970
X7620Y18288
X13208Y9398
X14986Y9271
X11430Y3048
X20447Y2667
X18669Y2794
X7493Y12192
X20828Y16764
X20828Y12954
X19431Y17272
X17526Y7620
X8001Y8509
X7874Y17526
X14732Y17780
X19304Y20701
X20701Y20193
X20320Y17780
X17399Y16383
X1143Y4318
X6350Y4445
X13716Y4318
X10541Y8890
X17526Y5969
X17526Y9398
X20701Y6350
X9271Y15113
X9779Y6096
X14986Y6096
X8509Y15367
X9169Y5588
X14986Y5461
X14977Y15558
X16330Y3048
X13843Y15367
X15754Y3931
X18872Y13630
X19431Y12446
X13208Y14732
X10033Y14859
X9906Y11811
X5580Y3202
X7366Y9398
X9906Y10795
X10414Y15113
X12827Y15164
X13462Y19050
X12954Y17145
X16002Y18161
X11100Y14859
X11227Y17653
X9144Y21539
X11430Y20879
X16764Y12478
X14046Y12500
X14039Y14166
X12319Y14478
X11684Y17780
X9525Y20879
X14097Y11811
X13589Y13970
X12141Y17780
X9937Y21240
X21260Y18415
X19304Y3556
X21590Y19177
X19685Y3175
X12050Y7158
X11250Y7158
X11580Y6731
X10795Y6858
X12446Y6858
X8001Y14732
X9652Y3175
X7831Y15283
X10330Y3429
X14605Y11938
X15113Y3175
X16637Y14351
X14478Y15316
X18796Y15240
X18974Y3175
X15748Y15519
X17671Y15646
X18118Y6266
X16637Y13589
X7663Y4021
X16129Y5080
X16180Y10414
X10287Y16891
X14986Y8763
X14986Y10795
X19304Y7874
X15748Y12827
X15951Y4572
X16002Y11560
X15113Y14478
X15149Y4699
X8995Y3781
X7239Y2921
X10770Y17780
X9398Y14478
X8001Y3556
X9398Y6350
X8029Y5814
X19177Y13208
X17856Y4826
X17399Y3175
X17145Y14986
X9658Y15373
X6731Y2921
X12612Y18212
X15352Y13208
X15494Y4318
X19431Y16383
X18330Y3302
X42700Y3175
X41938Y13843
X24285Y3302
X31778Y18669
X40160Y14986
X30000Y13970
X30127Y18288
X35715Y9398
X37493Y9271
X33937Y3048
X42954Y2667
X41176Y2794
X30000Y12192
X43335Y16764
X43335Y12954
X41938Y17272
X40033Y7620
X30508Y8509
X30381Y17526
X37239Y17780
X41811Y20701
X43208Y20193
X42827Y17780
X39906Y16383
X23650Y4318
X28857Y4445
X36223Y4318
X33048Y8890
X40033Y5969
X40033Y9398
X43208Y6350
X31778Y15113
X32286Y6096
X37493Y6096
X31016Y15367
X31676Y5588
X37493Y5461
X37484Y15558
X38837Y3048
X36350Y15367
X38261Y3931
X41379Y13630
X41938Y12446
X35715Y14732
X32540Y14859
X32413Y11811
X28087Y3202
X29873Y9398
X32413Y10795
X32921Y15113
X35334Y15164
X35969Y19050
X35461Y17145
X38509Y18161
X33607Y14859
X33734Y17653
X31651Y21539
X33937Y20879
X39271Y12478
X36553Y12500
X36546Y14166
X34826Y14478
X34191Y17780
X32032Y20879
X36604Y11811
X36096Y13970
X34648Y17780
X32444Y21240
X43767Y18415
X41811Y3556
X44097Y19177
X42192Y3175
X34557Y7158
X33757Y7158
X34087Y6731
X33302Y6858
X34953Y6858
X30508Y14732
X32159Y3175
X30338Y15283
X32837Y3429
X37112Y11938
X37620Y3175
X39144Y14351
X36985Y15316
X41303Y15240
X41481Y3175
X38255Y15519
X40178Y15646
X40625Y6266
X39144Y13589
X30170Y4021
X38636Y5080
X38687Y10414
X32794Y16891
X37493Y8763
X37493Y10795
X41811Y7874
X38255Y12827
X38458Y4572
X38509Y11560
X37620Y14478
X37656Y4699
X31502Y3781
X29746Y2921
X33277Y17780
X31905Y14478
X30508Y3556
X31905Y6350
X30536Y5814
X41684Y13208
X40363Y4826
X39906Y3175
X39652Y14986
X32165Y15373
X29238Y2921
X35119Y18212
X37859Y13208
X38001Y4318
X41938Y16383
X40837Y3302
X65209Y3175
X64447Y13843
X46794Y3302
X54287Y18669
X62669Y14986
X52509Y13970
X52636Y18288
X58224Y9398
X60002Y9271
X56446Y3048
X65463Y2667
X63685Y2794
X52509Y12192
X65844Y16764
X65844Y12954
X64447Y17272
X62542Y7620
X53017Y8509
X52890Y17526
X59748Y17780
X64320Y20701
X65717Y20193
X65336Y17780
X62415Y16383
X46159Y4318
X51366Y4445
X58732Y4318
X55557Y8890
X62542Y5969
X62542Y9398
X65717Y6350
X54287Y15113
X54795Y6096
X60002Y6096
X53525Y15367
X54186Y5588
X60002Y5461
X59993Y15558
X61347Y3048
X58859Y15367
X60770Y3931
X63889Y13630
X64447Y12446
X58224Y14732
X55049Y14859
X54922Y11811
X50597Y3202
X52382Y9398
X54922Y10795
X55430Y15113
X57843Y15164
X58478Y19050
X57970Y17145
X61018Y18161
X56116Y14859
X56243Y17653
X54160Y21539
X56446Y20879
X61780Y12478
X59063Y12500
X59056Y14166
X57335Y14478
X56700Y17780
X54541Y20879
X59113Y11811
X58605Y13970
X57158Y17780
X54954Y21240
X66276Y18415
X64320Y3556
X66606Y19177
X64701Y3175
X57066Y7158
X56266Y7158
X56597Y6731
X55811Y6858
X57462Y6858
X53017Y14732
X54668Y3175
X52847Y15283
X55347Y3429
X59621Y11938
X60129Y3175
X61653Y14351
X59494Y15316
X63812Y15240
X63990Y3175
X60764Y15519
X62687Y15646
X63134Y6266
X61653Y13589
X52679Y4021
X61145Y5080
X61196Y10414
X55303Y16891
X60002Y8763
X60002Y10795
X64320Y7874
X60764Y12827
X60968Y4572
X61018Y11560
X60129Y14478
X60166Y4699
X54012Y3781
X52255Y2921
X55786Y17780
X54414Y14478
X53017Y3556
X54414Y6350
X53045Y5814
X64193Y13208
X62873Y4826
X62415Y3175
X62161Y14986
X54674Y15373
X51747Y2921
X57628Y18212
X60369Y13208
X60510Y4318
X64447Y16383
X63347Y3302
X87716Y3175
X86954Y13843
X69301Y3302
X76794Y18669
X85176Y14986
X75016Y13970
X75143Y18288
X80731Y9398
X82509Y9271
X78953Y3048
X87970Y2667
X86192Y2794
X75016Y12192
X88351Y16764
X88351Y12954
X86954Y17272
X85049Y7620
X75524Y8509
X75397Y17526
X82255Y17780
X86827Y20701
X88224Y20193
X87843Y17780
X84922Y16383
X68666Y4318
X73873Y4445
X81239Y4318
X78064Y8890
X85049Y5969
X85049Y9398
X88224Y6350
X76794Y15113
X77302Y6096
X82509Y6096
X76032Y15367
X76693Y5588
X82509Y5461
X82500Y15558
X83854Y3048
X81366Y15367
X83277Y3931
X86395Y13630
X86954Y12446
X80731Y14732
X77556Y14859
X77429Y11811
X73104Y3202
X74889Y9398
X77429Y10795
X77937Y15113
X80350Y15164
X80985Y19050
X80477Y17145
X83525Y18161
X78623Y14859
X78750Y17653
X76667Y21539
X78953Y20879
X84287Y12478
X81570Y12500
X81563Y14166
X79842Y14478
X79207Y17780
X77048Y20879
X81620Y11811
X81112Y13970
X79665Y17780
X77461Y21240
X88783Y18415
X86827Y3556
X89113Y19177
X87208Y3175
X79573Y7158
X78773Y7158
X79104Y6731
X78318Y6858
X79969Y6858
X75524Y14732
X77175Y3175
X75354Y15283
X77854Y3429
X82128Y11938
X82636Y3175
X84160Y14351
X82001Y15316
X86319Y15240
X86497Y3175
X83271Y15519
X85194Y15646
X85641Y6266
X84160Y13589
X75186Y4021
X83652Y5080
X83703Y10414
X77810Y16891
X82509Y8763
X82509Y10795
X86827Y7874
X83271Y12827
X83475Y4572
X83525Y11560
X82636Y14478
X82673Y4699
X76519Y3781
X74762Y2921
X78293Y17780
X76921Y14478
X75524Y3556
X76921Y6350
X75552Y5814
X86700Y13208
X85380Y4826
X84922Y3175
X84668Y14986
X77181Y15373
X74254Y2921
X80135Y18212
X82876Y13208
X83017Y4318
X86954Y16383
X85854Y3302
X110226Y3175
X109464Y13843
X91811Y3302
X99304Y18669
X107686Y14986
X97526Y13970
X97653Y18288
X103241Y9398
X105019Y9271
X101463Y3048
X110480Y2667
X108702Y2794
X97526Y12192
X110861Y16764
X110861Y12954
X109464Y17272
X107559Y7620
X98034Y8509
X97907Y17526
X104765Y17780
X109337Y20701
X110734Y20193
X110353Y17780
X107432Y16383
X91176Y4318
X96383Y4445
X103749Y4318
X100574Y8890
X107559Y5969
X107559Y9398
X110734Y6350
X99304Y15113
X99812Y6096
X105019Y6096
X98542Y15367
X99202Y5588
X105019Y5461
X105010Y15558
X106363Y3048
X103876Y15367
X105787Y3931
X108905Y13630
X109464Y12446
X103241Y14732
X100066Y14859
X99939Y11811
X95613Y3202
X97399Y9398
X99939Y10795
X100447Y15113
X102860Y15164
X103495Y19050
X102987Y17145
X106035Y18161
X101133Y14859
X101260Y17653
X99177Y21539
X101463Y20879
X106797Y12478
X104079Y12500
X104072Y14166
X102352Y14478
X101717Y17780
X99558Y20879
X104130Y11811
X103622Y13970
X102174Y17780
X99970Y21240
X111293Y18415
X109337Y3556
X111623Y19177
X109718Y3175
X102083Y7158
X101283Y7158
X101613Y6731
X100828Y6858
X102479Y6858
X98034Y14732
X99685Y3175
X97864Y15283
X100363Y3429
X104638Y11938
X105146Y3175
X106670Y14351
X104511Y15316
X108829Y15240
X109007Y3175
X105781Y15519
X107703Y15646
X108151Y6266
X106670Y13589
X97696Y4021
X106162Y5080
X106213Y10414
X100320Y16891
X105019Y8763
X105019Y10795
X109337Y7874
X105781Y12827
X105984Y4572
X106035Y11560
X105146Y14478
X105182Y4699
X99028Y3781
X97272Y2921
X100802Y17780
X99431Y14478
X98034Y3556
X99431Y6350
X98062Y5814
X109210Y13208
X107889Y4826
X107432Y3175
X107178Y14986
X99691Y15373
X96764Y2921
X102645Y18212
X105385Y13208
X105527Y4318
X109464Y16383
X108363Y3302
X132733Y3175
X131971Y13843
X114318Y3302
X121811Y18669
X130193Y14986
X120033Y13970
X120160Y18288
X125748Y9398
X127526Y9271
X123970Y3048
X132987Y2667
X131209Y2794
X120033Y12192
X133368Y16764
X133368Y12954
X131971Y17272
X130066Y7620
X120541Y8509
X120414Y17526
X127272Y17780
X131844Y20701
X133241Y20193
X132860Y17780
X129939Y16383
X113683Y4318
X118890Y4445
X126256Y4318
X123081Y8890
X130066Y5969
X130066Y9398
X133241Y6350
X121811Y15113
X122319Y6096
X127526Y6096
X121049Y15367
X121709Y5588
X127526Y5461
X127517Y15558
X128870Y3048
X126383Y15367
X128294Y3931
X131412Y13630
X131971Y12446
X125748Y14732
X122573Y14859
X122446Y11811
X118120Y3202
X119906Y9398
X122446Y10795
X122954Y15113
X125367Y15164
X126002Y19050
X125494Y17145
X128542Y18161
X123640Y14859
X123767Y17653
X121684Y21539
X123970Y20879
X129304Y12478
X126586Y12500
X126579Y14166
X124859Y14478
X124224Y17780
X122065Y20879
X126637Y11811
X126129Y13970
X124681Y17780
X122477Y21240
X133800Y18415
X131844Y3556
X134130Y19177
X132225Y3175
X124590Y7158
X123790Y7158
X124120Y6731
X123335Y6858
X124986Y6858
X120541Y14732
X122192Y3175
X120371Y15283
X122870Y3429
X127145Y11938
X127653Y3175
X129177Y14351
X127018Y15316
X131336Y15240
X131514Y3175
X128288Y15519
X130210Y15646
X130658Y6266
X129177Y13589
X120203Y4021
X128669Y5080
X128720Y10414
X122827Y16891
X127526Y8763
X127526Y10795
X131844Y7874
X128288Y12827
X128491Y4572
X128542Y11560
X127653Y14478
X127689Y4699
X121535Y3781
X119779Y2921
X123309Y17780
X121938Y14478
X120541Y3556
X121938Y6350
X120569Y5814
X131717Y13208
X130396Y4826
X129939Y3175
X129685Y14986
X122198Y15373
X119271Y2921
X125152Y18212
X127892Y13208
X128034Y4318
X131971Y16383
X130870Y3302
X155242Y3175
X154480Y13843
X136827Y3302
X144320Y18669
X152702Y14986
X142542Y13970
X142669Y18288
X148257Y9398
X150035Y9271
X146479Y3048
X155496Y2667
X153718Y2794
X142542Y12192
X155877Y16764
X155877Y12954
X154480Y17272
X152575Y7620
X143050Y8509
X142923Y17526
X149781Y17780
X154353Y20701
X155750Y20193
X155369Y17780
X152448Y16383
X136192Y4318
X141399Y4445
X148765Y4318
X145590Y8890
X152575Y5969
X152575Y9398
X155750Y6350
X144320Y15113
X144828Y6096
X150035Y6096
X143558Y15367
X144219Y5588
X150035Y5461
X150026Y15558
X151379Y3048
X148892Y15367
X150803Y3931
X153921Y13630
X154480Y12446
X148257Y14732
X145082Y14859
X144955Y11811
X140629Y3202
X142415Y9398
X144955Y10795
X145463Y15113
X147876Y15164
X148511Y19050
X148003Y17145
X151051Y18161
X146149Y14859
X146276Y17653
X144193Y21539
X146479Y20879
X151813Y12478
X149095Y12500
X149089Y14166
X147368Y14478
X146733Y17780
X144574Y20879
X149146Y11811
X148638Y13970
X147190Y17780
X144986Y21240
X156309Y18415
X154353Y3556
X156639Y19177
X154734Y3175
X147099Y7158
X146299Y7158
X146629Y6731
X145844Y6858
X147495Y6858
X143050Y14732
X144701Y3175
X142880Y15283
X145379Y3429
X149654Y11938
X150162Y3175
X151686Y14351
X149527Y15316
X153845Y15240
X154023Y3175
X150797Y15519
X152720Y15646
X153167Y6266
X151686Y13589
X142712Y4021
X151178Y5080
X151229Y10414
X145336Y16891
X150035Y8763
X150035Y10795
X154353Y7874
X150797Y12827
X151000Y4572
X151051Y11560
X150162Y14478
X150198Y4699
X144045Y3781
X142288Y2921
X145819Y17780
X144447Y14478
X143050Y3556
X144447Y6350
X143078Y5814
X154226Y13208
X152905Y4826
X152448Y3175
X152194Y14986
X144707Y15373
X141780Y2921
X147661Y18212
X150402Y13208
X150543Y4318
X154480Y16383
X153379Y3302
X177749Y3175
X176987Y13843
X159334Y3302
X166827Y18669
X175209Y14986
X165049Y13970
X165176Y18288
X170764Y9398
X172542Y9271
X168986Y3048
X178003Y2667
X176225Y2794
X165049Y12192
X178384Y16764
X178384Y12954
X176987Y17272
X175082Y7620
X165557Y8509
X165430Y17526
X172288Y17780
X176860Y20701
X178257Y20193
X177876Y17780
X174955Y16383
X158699Y4318
X163906Y4445
X171272Y4318
X168097Y8890
X175082Y5969
X175082Y9398
X178257Y6350
X166827Y15113
X167335Y6096
X172542Y6096
X166065Y15367
X166726Y5588
X172542Y5461
X172533Y15558
X173886Y3048
X171399Y15367
X173310Y3931
X176428Y13630
X176987Y12446
X170764Y14732
X167589Y14859
X167462Y11811
X163136Y3202
X164922Y9398
X167462Y10795
X167970Y15113
X170383Y15164
X171018Y19050
X170510Y17145
X173558Y18161
X168656Y14859
X168783Y17653
X166700Y21539
X168986Y20879
X174320Y12478
X171602Y12500
X171595Y14166
X169875Y14478
X169240Y17780
X167081Y20879
X171653Y11811
X171145Y13970
X169697Y17780
X167493Y21240
X178816Y18415
X176860Y3556
X179146Y19177
X177241Y3175
X169606Y7158
X168806Y7158
X169136Y6731
X168351Y6858
X170002Y6858
X165557Y14732
X167208Y3175
X165387Y15283
X167886Y3429
X172161Y11938
X172669Y3175
X174193Y14351
X172034Y15316
X176352Y15240
X176530Y3175
X173304Y15519
X175227Y15646
X175674Y6266
X174193Y13589
X165219Y4021
X173685Y5080
X173736Y10414
X167843Y16891
X172542Y8763
X172542Y10795
X176860Y7874
X173304Y12827
X173507Y4572
X173558Y11560
X172669Y14478
X172705Y4699
X166552Y3781
X164795Y2921
X168326Y17780
X166954Y14478
X165557Y3556
X166954Y6350
X165585Y5814
X176733Y13208
X175412Y4826
X174955Y3175
X174701Y14986
X167214Y15373
X164287Y2921
X170168Y18212
X172909Y13208
X173050Y4318
X176987Y16383
X175886Y3302
X1806Y66675
X2568Y56007
X20221Y66548
X12728Y51181
X4346Y54864
X14506Y55880
X14379Y51562
X8791Y60452
X7013Y60579
X10569Y66802
X1552Y67183
X3330Y67056
X14506Y57658
X1171Y53086
X1171Y56896
X2568Y52578
X4473Y62230
X13998Y61341
X14125Y52324
X7267Y52070
X2695Y49149
X1298Y49657
X1679Y52070
X4600Y53467
X20856Y65532
X15649Y65405
X8283Y65532
X11458Y60960
X4473Y63881
X4473Y60452
X1298Y63500
X12728Y54737
X12220Y63754
X7013Y63754
X13490Y54483
X12830Y64262
X7013Y64389
X7022Y54292
X5669Y66802
X8156Y54483
X6245Y65919
X3127Y56220
X2568Y57404
X8791Y55118
X11966Y54991
X12093Y58039
X16419Y66648
X14633Y60452
X12093Y59055
X11585Y54737
X9172Y54686
X8537Y50800
X9045Y52705
X5997Y51689
X10899Y54991
X10772Y52197
X12855Y48311
X10569Y48971
X5235Y57372
X7953Y57350
X7960Y55684
X9680Y55372
X10315Y52070
X12474Y48971
X7902Y58039
X8410Y55880
X9858Y52070
X12062Y48610
X739Y51435
X2695Y66294
X409Y50673
X2314Y66675
X9949Y62692
X10749Y62692
X10419Y63119
X11204Y62992
X9553Y62992
X13998Y55118
X12347Y66675
X14168Y54567
X11669Y66421
X7394Y57912
X6886Y66675
X5362Y55499
X7521Y54534
X3203Y54610
X3025Y66675
X6251Y54331
X4328Y54204
X3881Y63584
X5362Y56261
X14336Y65829
X5870Y64770
X5819Y59436
X11712Y52959
X7013Y61087
X7013Y59055
X2695Y61976
X6251Y57023
X6048Y65278
X5997Y58290
X6886Y55372
X6850Y65151
X13004Y66069
X14760Y66929
X11229Y52070
X12601Y55372
X13998Y66294
X12601Y63500
X13970Y64036
X2822Y56642
X4143Y65024
X4600Y66675
X4854Y54864
X12341Y54477
X15268Y66929
X9387Y51638
X6647Y56642
X6505Y65532
X2568Y53467
X3669Y66548
X24315Y66675
X25077Y56007
X42730Y66548
X35237Y51181
X26855Y54864
X37015Y55880
X36888Y51562
X31300Y60452
X29522Y60579
X33078Y66802
X24061Y67183
X25839Y67056
X37015Y57658
X23680Y53086
X23680Y56896
X25077Y52578
X26982Y62230
X36507Y61341
X36634Y52324
X29776Y52070
X25204Y49149
X23807Y49657
X24188Y52070
X27109Y53467
X43365Y65532
X38158Y65405
X30792Y65532
X33967Y60960
X26982Y63881
X26982Y60452
X23807Y63500
X35237Y54737
X34729Y63754
X29522Y63754
X35999Y54483
X35339Y64262
X29522Y64389
X29531Y54292
X28178Y66802
X30665Y54483
X28755Y65919
X25636Y56220
X25077Y57404
X31300Y55118
X34475Y54991
X34602Y58039
X38928Y66648
X37142Y60452
X34602Y59055
X34094Y54737
X31681Y54686
X31046Y50800
X31554Y52705
X28506Y51689
X33409Y54991
X33282Y52197
X35364Y48311
X33078Y48971
X27744Y57372
X30462Y57350
X30469Y55684
X32189Y55372
X32824Y52070
X34983Y48971
X30411Y58039
X30919Y55880
X32367Y52070
X34571Y48610
X23249Y51435
X25204Y66294
X22918Y50673
X24823Y66675
X32458Y62692
X33258Y62692
X32928Y63119
X33713Y62992
X32062Y62992
X36507Y55118
X34856Y66675
X36677Y54567
X34178Y66421
X29903Y57912
X29395Y66675
X27871Y55499
X30030Y54534
X25712Y54610
X25535Y66675
X28760Y54331
X26838Y54204
X26390Y63584
X27871Y56261
X36845Y65829
X28379Y64770
X28329Y59436
X34221Y52959
X29522Y61087
X29522Y59055
X25204Y61976
X28760Y57023
X28557Y65278
X28506Y58290
X29395Y55372
X29359Y65151
X35513Y66069
X37269Y66929
X33739Y52070
X35110Y55372
X36507Y66294
X35110Y63500
X36479Y64036
X25331Y56642
X26652Y65024
X27109Y66675
X27363Y54864
X34851Y54477
X37777Y66929
X31896Y51638
X29156Y56642
X29014Y65532
X25077Y53467
X26178Y66548
X46822Y66675
X47584Y56007
X65237Y66548
X57744Y51181
X49362Y54864
X59522Y55880
X59395Y51562
X53807Y60452
X52029Y60579
X55585Y66802
X46568Y67183
X48346Y67056
X59522Y57658
X46187Y53086
X46187Y56896
X47584Y52578
X49489Y62230
X59014Y61341
X59141Y52324
X52283Y52070
X47711Y49149
X46314Y49657
X46695Y52070
X49616Y53467
X65872Y65532
X60665Y65405
X53299Y65532
X56474Y60960
X49489Y63881
X49489Y60452
X46314Y63500
X57744Y54737
X57236Y63754
X52029Y63754
X58506Y54483
X57846Y64262
X52029Y64389
X52038Y54292
X50685Y66802
X53172Y54483
X51262Y65919
X48143Y56220
X47584Y57404
X53807Y55118
X56982Y54991
X57109Y58039
X61435Y66648
X59649Y60452
X57109Y59055
X56601Y54737
X54188Y54686
X53553Y50800
X54061Y52705
X51013Y51689
X55916Y54991
X55789Y52197
X57871Y48311
X55585Y48971
X50251Y57372
X52969Y57350
X52976Y55684
X54696Y55372
X55331Y52070
X57490Y48971
X52918Y58039
X53426Y55880
X54874Y52070
X57078Y48610
X45756Y51435
X47711Y66294
X45425Y50673
X47330Y66675
X54965Y62692
X55765Y62692
X55435Y63119
X56220Y62992
X54569Y62992
X59014Y55118
X57363Y66675
X59184Y54567
X56685Y66421
X52410Y57912
X51902Y66675
X50378Y55499
X52537Y54534
X48219Y54610
X48042Y66675
X51267Y54331
X49345Y54204
X48897Y63584
X50378Y56261
X59352Y65829
X50886Y64770
X50836Y59436
X56728Y52959
X52029Y61087
X52029Y59055
X47711Y61976
X51267Y57023
X51064Y65278
X51013Y58290
X51902Y55372
X51866Y65151
X58020Y66069
X59776Y66929
X56246Y52070
X57617Y55372
X59014Y66294
X57617Y63500
X58986Y64036
X47838Y56642
X49159Y65024
X49616Y66675
X49870Y54864
X57358Y54477
X60284Y66929
X54403Y51638
X51663Y56642
X51521Y65532
X47584Y53467
X48685Y66548
X69332Y66675
X70094Y56007
X87747Y66548
X80254Y51181
X71872Y54864
X82032Y55880
X81905Y51562
X76317Y60452
X74539Y60579
X78095Y66802
X69078Y67183
X70856Y67056
X82032Y57658
X68697Y53086
X68697Y56896
X70094Y52578
X71999Y62230
X81524Y61341
X81651Y52324
X74793Y52070
X70221Y49149
X68824Y49657
X69205Y52070
X72126Y53467
X88382Y65532
X83175Y65405
X75809Y65532
X78984Y60960
X71999Y63881
X71999Y60452
X68824Y63500
X80254Y54737
X79746Y63754
X74539Y63754
X81016Y54483
X80355Y64262
X74539Y64389
X74548Y54292
X73195Y66802
X75682Y54483
X73771Y65919
X70653Y56220
X70094Y57404
X76317Y55118
X79492Y54991
X79619Y58039
X83945Y66648
X82159Y60452
X79619Y59055
X79111Y54737
X76698Y54686
X76063Y50800
X76571Y52705
X73523Y51689
X78425Y54991
X78298Y52197
X80381Y48311
X78095Y48971
X72761Y57372
X75479Y57350
X75486Y55684
X77206Y55372
X77841Y52070
X80000Y48971
X75428Y58039
X75936Y55880
X77384Y52070
X79588Y48610
X68265Y51435
X70221Y66294
X67935Y50673
X69840Y66675
X77475Y62692
X78275Y62692
X77945Y63119
X78730Y62992
X77079Y62992
X81524Y55118
X79873Y66675
X81694Y54567
X79195Y66421
X74920Y57912
X74412Y66675
X72888Y55499
X75047Y54534
X70729Y54610
X70551Y66675
X73777Y54331
X71854Y54204
X71407Y63584
X72888Y56261
X81862Y65829
X73396Y64770
X73345Y59436
X79238Y52959
X74539Y61087
X74539Y59055
X70221Y61976
X73777Y57023
X73574Y65278
X73523Y58290
X74412Y55372
X74376Y65151
X80529Y66069
X82286Y66929
X78755Y52070
X80127Y55372
X81524Y66294
X80127Y63500
X81496Y64036
X70348Y56642
X71669Y65024
X72126Y66675
X72380Y54864
X79867Y54477
X82794Y66929
X76913Y51638
X74172Y56642
X74031Y65532
X70094Y53467
X71195Y66548
X91839Y66675
X92601Y56007
X110254Y66548
X102761Y51181
X94379Y54864
X104539Y55880
X104412Y51562
X98824Y60452
X97046Y60579
X100602Y66802
X91585Y67183
X93363Y67056
X104539Y57658
X91204Y53086
X91204Y56896
X92601Y52578
X94506Y62230
X104031Y61341
X104158Y52324
X97300Y52070
X92728Y49149
X91331Y49657
X91712Y52070
X94633Y53467
X110889Y65532
X105682Y65405
X98316Y65532
X101491Y60960
X94506Y63881
X94506Y60452
X91331Y63500
X102761Y54737
X102253Y63754
X97046Y63754
X103523Y54483
X102862Y64262
X97046Y64389
X97055Y54292
X95702Y66802
X98189Y54483
X96278Y65919
X93160Y56220
X92601Y57404
X98824Y55118
X101999Y54991
X102126Y58039
X106452Y66648
X104666Y60452
X102126Y59055
X101618Y54737
X99205Y54686
X98570Y50800
X99078Y52705
X96030Y51689
X100932Y54991
X100805Y52197
X102888Y48311
X100602Y48971
X95268Y57372
X97986Y57350
X97992Y55684
X99713Y55372
X100348Y52070
X102507Y48971
X97935Y58039
X98443Y55880
X99891Y52070
X102095Y48610
X90772Y51435
X92728Y66294
X90442Y50673
X92347Y66675
X99982Y62692
X100782Y62692
X100452Y63119
X101237Y62992
X99586Y62992
X104031Y55118
X102380Y66675
X104201Y54567
X101702Y66421
X97427Y57912
X96919Y66675
X95395Y55499
X97554Y54534
X93236Y54610
X93058Y66675
X96284Y54331
X94361Y54204
X93914Y63584
X95395Y56261
X104369Y65829
X95903Y64770
X95852Y59436
X101745Y52959
X97046Y61087
X97046Y59055
X92728Y61976
X96284Y57023
X96081Y65278
X96030Y58290
X96919Y55372
X96883Y65151
X103036Y66069
X104793Y66929
X101262Y52070
X102634Y55372
X104031Y66294
X102634Y63500
X104003Y64036
X92855Y56642
X94176Y65024
X94633Y66675
X94887Y54864
X102374Y54477
X105301Y66929
X99420Y51638
X96679Y56642
X96538Y65532
X92601Y53467
X93702Y66548
X114348Y66675
X115110Y56007
X132763Y66548
X125270Y51181
X116888Y54864
X127048Y55880
X126921Y51562
X121333Y60452
X119555Y60579
X123111Y66802
X114094Y67183
X115872Y67056
X127048Y57658
X113713Y53086
X113713Y56896
X115110Y52578
X117015Y62230
X126540Y61341
X126667Y52324
X119809Y52070
X115237Y49149
X113840Y49657
X114221Y52070
X117142Y53467
X133398Y65532
X128191Y65405
X120825Y65532
X124000Y60960
X117015Y63881
X117015Y60452
X113840Y63500
X125270Y54737
X124762Y63754
X119555Y63754
X126032Y54483
X125372Y64262
X119555Y64389
X119564Y54292
X118211Y66802
X120698Y54483
X118787Y65919
X115669Y56220
X115110Y57404
X121333Y55118
X124508Y54991
X124635Y58039
X128961Y66648
X127175Y60452
X124635Y59055
X124127Y54737
X121714Y54686
X121079Y50800
X121587Y52705
X118539Y51689
X123441Y54991
X123314Y52197
X125397Y48311
X123111Y48971
X117777Y57372
X120495Y57350
X120502Y55684
X122222Y55372
X122857Y52070
X125016Y48971
X120444Y58039
X120952Y55880
X122400Y52070
X124604Y48610
X113281Y51435
X115237Y66294
X112951Y50673
X114856Y66675
X122491Y62692
X123291Y62692
X122961Y63119
X123746Y62992
X122095Y62992
X126540Y55118
X124889Y66675
X126710Y54567
X124211Y66421
X119936Y57912
X119428Y66675
X117904Y55499
X120063Y54534
X115745Y54610
X115567Y66675
X118793Y54331
X116871Y54204
X116423Y63584
X117904Y56261
X126878Y65829
X118412Y64770
X118361Y59436
X124254Y52959
X119555Y61087
X119555Y59055
X115237Y61976
X118793Y57023
X118590Y65278
X118539Y58290
X119428Y55372
X119392Y65151
X125546Y66069
X127302Y66929
X123772Y52070
X125143Y55372
X126540Y66294
X125143Y63500
X126512Y64036
X115364Y56642
X116685Y65024
X117142Y66675
X117396Y54864
X124883Y54477
X127810Y66929
X121929Y51638
X119189Y56642
X119047Y65532
X115110Y53467
X116211Y66548
X136855Y66675
X137617Y56007
X155270Y66548
X147777Y51181
X139395Y54864
X149555Y55880
X149428Y51562
X143840Y60452
X142062Y60579
X145618Y66802
X136601Y67183
X138379Y67056
X149555Y57658
X136220Y53086
X136220Y56896
X137617Y52578
X139522Y62230
X149047Y61341
X149174Y52324
X142316Y52070
X137744Y49149
X136347Y49657
X136728Y52070
X139649Y53467
X155905Y65532
X150698Y65405
X143332Y65532
X146507Y60960
X139522Y63881
X139522Y60452
X136347Y63500
X147777Y54737
X147269Y63754
X142062Y63754
X148539Y54483
X147879Y64262
X142062Y64389
X142071Y54292
X140718Y66802
X143205Y54483
X141294Y65919
X138176Y56220
X137617Y57404
X143840Y55118
X147015Y54991
X147142Y58039
X151468Y66648
X149682Y60452
X147142Y59055
X146634Y54737
X144221Y54686
X143586Y50800
X144094Y52705
X141046Y51689
X145948Y54991
X145821Y52197
X147904Y48311
X145618Y48971
X140284Y57372
X143002Y57350
X143009Y55684
X144729Y55372
X145364Y52070
X147523Y48971
X142951Y58039
X143459Y55880
X144907Y52070
X147111Y48610
X135788Y51435
X137744Y66294
X135458Y50673
X137363Y66675
X144998Y62692
X145798Y62692
X145468Y63119
X146253Y62992
X144602Y62992
X149047Y55118
X147396Y66675
X149217Y54567
X146718Y66421
X142443Y57912
X141935Y66675
X140411Y55499
X142570Y54534
X138252Y54610
X138074Y66675
X141300Y54331
X139378Y54204
X138930Y63584
X140411Y56261
X149385Y65829
X140919Y64770
X140868Y59436
X146761Y52959
X142062Y61087
X142062Y59055
X137744Y61976
X141300Y57023
X141097Y65278
X141046Y58290
X141935Y55372
X141899Y65151
X148053Y66069
X149809Y66929
X146279Y52070
X147650Y55372
X149047Y66294
X147650Y63500
X149019Y64036
X137871Y56642
X139192Y65024
X139649Y66675
X139903Y54864
X147390Y54477
X150317Y66929
X144436Y51638
X141696Y56642
X141554Y65532
X137617Y53467
X138718Y66548
X159362Y66675
X160124Y56007
X177777Y66548
X170284Y51181
X161902Y54864
X172062Y55880
X171935Y51562
X166347Y60452
X164569Y60579
X168125Y66802
X159108Y67183
X160886Y67056
X172062Y57658
X158727Y53086
X158727Y56896
X160124Y52578
X162029Y62230
X171554Y61341
X171681Y52324
X164823Y52070
X160251Y49149
X158854Y49657
X159235Y52070
X162156Y53467
X178412Y65532
X173205Y65405
X165839Y65532
X169014Y60960
X162029Y63881
X162029Y60452
X158854Y63500
X170284Y54737
X169776Y63754
X164569Y63754
X171046Y54483
X170386Y64262
X164569Y64389
X164578Y54292
X163225Y66802
X165712Y54483
X163801Y65919
X160683Y56220
X160124Y57404
X166347Y55118
X169522Y54991
X169649Y58039
X173975Y66648
X172189Y60452
X169649Y59055
X169141Y54737
X166728Y54686
X166093Y50800
X166601Y52705
X163553Y51689
X168455Y54991
X168328Y52197
X170411Y48311
X168125Y48971
X162791Y57372
X165509Y57350
X165516Y55684
X167236Y55372
X167871Y52070
X170030Y48971
X165458Y58039
X165966Y55880
X167414Y52070
X169618Y48610
X158295Y51435
X160251Y66294
X157965Y50673
X159870Y66675
X167505Y62692
X168305Y62692
X167975Y63119
X168760Y62992
X167109Y62992
X171554Y55118
X169903Y66675
X171724Y54567
X169225Y66421
X164950Y57912
X164442Y66675
X162918Y55499
X165077Y54534
X160759Y54610
X160581Y66675
X163807Y54331
X161885Y54204
X161437Y63584
X162918Y56261
X171892Y65829
X163426Y64770
X163375Y59436
X169268Y52959
X164569Y61087
X164569Y59055
X160251Y61976
X163807Y57023
X163604Y65278
X163553Y58290
X164442Y55372
X164406Y65151
X170560Y66069
X172316Y66929
X168786Y52070
X170157Y55372
X171554Y66294
X170157Y63500
X171526Y64036
X160378Y56642
X161699Y65024
X162156Y66675
X162410Y54864
X169897Y54477
X172824Y66929
X166943Y51638
X164203Y56642
X164061Y65532
X160124Y53467
X161225Y66548
T2
X12900Y21000
X17100Y21000
X15000Y19700
X35407Y21000
X39607Y21000
X37507Y19700
X57916Y21000
X62116Y21000
X60016Y19700
X80423Y21000
X84623Y21000
X82523Y19700
X102933Y21000
X107133Y21000
X105033Y19700
X125440Y21000
X129640Y21000
X127540Y19700
X147949Y21000
X152149Y21000
X150049Y19700
X170456Y21000
X174656Y21000
X172556Y19700
X9099Y48850
X4899Y48850
X6999Y50150
X31608Y48850
X27408Y48850
X29508Y50150
X54115Y48850
X49915Y48850
X52015Y50150
X76625Y48850
X72425Y48850
X74525Y50150
X99132Y48850
X94932Y48850
X97032Y50150
X121641Y48850
X117441Y48850
X119541Y50150
X144148Y48850
X139948Y48850
X142048Y50150
X166655Y48850
X162455Y48850
X164555Y50150
M30