M48
;GenerationSoftware,Autodesk,EAGLE,9.4.2*%
;CreationDate,2020-10-08T15:11:15Z*%
FMAT,2
ICI,OFF
METRIC,TZ,000.000
T2C0.200
T1C0.203
%
G90
M71
T1
X19431Y13843
X9271Y18669
X17653Y14986
X7493Y13970
X2580Y3048
X381Y10033
X7620Y18288
X14986Y9271
X11430Y3048
X20447Y2667
X18669Y2794
X7493Y12192
X20828Y16764
X20828Y12954
X19431Y17272
X17526Y7620
X7874Y17526
X19304Y20701
X20701Y20193
X20320Y17780
X1524Y2540
X6604Y4318
X17526Y5969
X17526Y9398
X8128Y7112
X7493Y16002
X11684Y14986
X17399Y16129
X9779Y8255
X8001Y8763
X9271Y15113
X9906Y5969
X14986Y6096
X8509Y15367
X9550Y5588
X14986Y5461
X15993Y13399
X16330Y3048
X16389Y5963
X9779Y7112
X18872Y13630
X19431Y12446
X13589Y14859
X10033Y14859
X9906Y11811
X5580Y3202
X7366Y9398
X12827Y15164
X13462Y18923
X12954Y17145
X14097Y13081
X11100Y14859
X11227Y17653
X9144Y21539
X11430Y20625
X15621Y17907
X11684Y17780
X9525Y20879
X14097Y11938
X13589Y14097
X12141Y17780
X9937Y21240
X9893Y9271
X14103Y14599
X13589Y9271
X21260Y18415
X19304Y3556
X21590Y19177
X20447Y3937
X11250Y7158
X11580Y6731
X10795Y6858
X8001Y14732
X4318Y4064
X8382Y5461
X7831Y15283
X4920Y4191
X9093Y5451
X14859Y11938
X15113Y3175
X16383Y14351
X14478Y15316
X18796Y15240
X18974Y3175
X16848Y7536
X16256Y18923
X16782Y12319
X16383Y13843
X7663Y3640
X16129Y5080
X16180Y10414
X10287Y16891
X14986Y8763
X14986Y10795
X19304Y7874
X16002Y12827
X15951Y4572
X16129Y11560
X15113Y14478
X15149Y4318
X8995Y3273
X7239Y2794
X10770Y17780
X9398Y14478
X8001Y3302
X9398Y6096
X8029Y5814
X11430Y5207
X10922Y5207
X19177Y13208
X17856Y4826
X17399Y3175
X17145Y14986
X9658Y15373
X6731Y2921
X12612Y18212
X15479Y13208
X15240Y3683
X19431Y16383
X18330Y3302
X7874Y9398
X7333Y3302
X4920Y3683
X9893Y10668
X15996Y14611
X889Y5207
X20172Y3069
X1651Y3429
X19933Y3943
X20701Y6223
X12395Y7147
X41938Y13843
X31778Y18669
X40160Y14986
X30000Y13970
X25087Y3048
X22888Y10033
X30127Y18288
X37493Y9271
X33937Y3048
X42954Y2667
X41176Y2794
X30000Y12192
X43335Y16764
X43335Y12954
X41938Y17272
X40033Y7620
X30381Y17526
X41811Y20701
X43208Y20193
X42827Y17780
X24031Y2540
X29111Y4318
X40033Y5969
X40033Y9398
X30635Y7112
X30000Y16002
X34191Y14986
X39906Y16129
X32286Y8255
X30508Y8763
X31778Y15113
X32413Y5969
X37493Y6096
X31016Y15367
X32057Y5588
X37493Y5461
X38500Y13399
X38837Y3048
X38896Y5963
X32286Y7112
X41379Y13630
X41938Y12446
X36096Y14859
X32540Y14859
X32413Y11811
X28087Y3202
X29873Y9398
X35334Y15164
X35969Y18923
X35461Y17145
X36604Y13081
X33607Y14859
X33734Y17653
X31651Y21539
X33937Y20625
X38128Y17907
X34191Y17780
X32032Y20879
X36604Y11938
X36096Y14097
X34648Y17780
X32444Y21240
X32400Y9271
X36610Y14599
X36096Y9271
X43767Y18415
X41811Y3556
X44097Y19177
X42954Y3937
X33757Y7158
X34087Y6731
X33302Y6858
X30508Y14732
X26825Y4064
X30889Y5461
X30338Y15283
X27427Y4191
X31600Y5451
X37366Y11938
X37620Y3175
X38890Y14351
X36985Y15316
X41303Y15240
X41481Y3175
X39355Y7536
X38763Y18923
X39289Y12319
X38890Y13843
X30170Y3640
X38636Y5080
X38687Y10414
X32794Y16891
X37493Y8763
X37493Y10795
X41811Y7874
X38509Y12827
X38458Y4572
X38636Y11560
X37620Y14478
X37656Y4318
X31502Y3273
X29746Y2794
X33277Y17780
X31905Y14478
X30508Y3302
X31905Y6096
X30536Y5814
X33937Y5207
X33429Y5207
X41684Y13208
X40363Y4826
X39906Y3175
X39652Y14986
X32165Y15373
X29238Y2921
X35119Y18212
X37986Y13208
X37747Y3683
X41938Y16383
X40837Y3302
X30381Y9398
X29840Y3302
X27427Y3683
X32400Y10668
X38503Y14611
X23396Y5207
X42679Y3069
X24158Y3429
X42440Y3943
X43208Y6223
X34902Y7147
X64447Y13843
X54287Y18669
X62669Y14986
X52509Y13970
X47597Y3048
X45397Y10033
X52636Y18288
X60002Y9271
X56446Y3048
X65463Y2667
X63685Y2794
X52509Y12192
X65844Y16764
X65844Y12954
X64447Y17272
X62542Y7620
X52890Y17526
X64320Y20701
X65717Y20193
X65336Y17780
X46540Y2540
X51620Y4318
X62542Y5969
X62542Y9398
X53144Y7112
X52509Y16002
X56700Y14986
X62415Y16129
X54795Y8255
X53017Y8763
X54287Y15113
X54922Y5969
X60002Y6096
X53525Y15367
X54567Y5588
X60002Y5461
X61009Y13399
X61347Y3048
X61405Y5963
X54795Y7112
X63889Y13630
X64447Y12446
X58605Y14859
X55049Y14859
X54922Y11811
X50597Y3202
X52382Y9398
X57843Y15164
X58478Y18923
X57970Y17145
X59113Y13081
X56116Y14859
X56243Y17653
X54160Y21539
X56446Y20625
X60637Y17907
X56700Y17780
X54541Y20879
X59113Y11938
X58605Y14097
X57158Y17780
X54954Y21240
X54910Y9271
X59119Y14599
X58605Y9271
X66276Y18415
X64320Y3556
X66606Y19177
X65463Y3937
X56266Y7158
X56597Y6731
X55811Y6858
X53017Y14732
X49334Y4064
X53398Y5461
X52847Y15283
X49936Y4191
X54110Y5451
X59875Y11938
X60129Y3175
X61399Y14351
X59494Y15316
X63812Y15240
X63990Y3175
X61864Y7536
X61272Y18923
X61798Y12319
X61399Y13843
X52679Y3640
X61145Y5080
X61196Y10414
X55303Y16891
X60002Y8763
X60002Y10795
X64320Y7874
X61018Y12827
X60968Y4572
X61145Y11560
X60129Y14478
X60166Y4318
X54012Y3273
X52255Y2794
X55786Y17780
X54414Y14478
X53017Y3302
X54414Y6096
X53045Y5814
X56446Y5207
X55938Y5207
X64193Y13208
X62873Y4826
X62415Y3175
X62161Y14986
X54674Y15373
X51747Y2921
X57628Y18212
X60496Y13208
X60256Y3683
X64447Y16383
X63347Y3302
X52890Y9398
X52349Y3302
X49936Y3683
X54910Y10668
X61013Y14611
X45905Y5207
X65189Y3069
X46667Y3429
X64950Y3943
X65717Y6223
X57412Y7147
X86954Y13843
X76794Y18669
X85176Y14986
X75016Y13970
X70104Y3048
X67904Y10033
X75143Y18288
X82509Y9271
X78953Y3048
X87970Y2667
X86192Y2794
X75016Y12192
X88351Y16764
X88351Y12954
X86954Y17272
X85049Y7620
X75397Y17526
X86827Y20701
X88224Y20193
X87843Y17780
X69047Y2540
X74127Y4318
X85049Y5969
X85049Y9398
X75651Y7112
X75016Y16002
X79207Y14986
X84922Y16129
X77302Y8255
X75524Y8763
X76794Y15113
X77429Y5969
X82509Y6096
X76032Y15367
X77074Y5588
X82509Y5461
X83516Y13399
X83854Y3048
X83912Y5963
X77302Y7112
X86395Y13630
X86954Y12446
X81112Y14859
X77556Y14859
X77429Y11811
X73104Y3202
X74889Y9398
X80350Y15164
X80985Y18923
X80477Y17145
X81620Y13081
X78623Y14859
X78750Y17653
X76667Y21539
X78953Y20625
X83144Y17907
X79207Y17780
X77048Y20879
X81620Y11938
X81112Y14097
X79665Y17780
X77461Y21240
X77417Y9271
X81626Y14599
X81112Y9271
X88783Y18415
X86827Y3556
X89113Y19177
X87970Y3937
X78773Y7158
X79104Y6731
X78318Y6858
X75524Y14732
X71841Y4064
X75905Y5461
X75354Y15283
X72443Y4191
X76617Y5451
X82382Y11938
X82636Y3175
X83906Y14351
X82001Y15316
X86319Y15240
X86497Y3175
X84371Y7536
X83779Y18923
X84305Y12319
X83906Y13843
X75186Y3640
X83652Y5080
X83703Y10414
X77810Y16891
X82509Y8763
X82509Y10795
X86827Y7874
X83525Y12827
X83475Y4572
X83652Y11560
X82636Y14478
X82673Y4318
X76519Y3273
X74762Y2794
X78293Y17780
X76921Y14478
X75524Y3302
X76921Y6096
X75552Y5814
X78953Y5207
X78445Y5207
X86700Y13208
X85380Y4826
X84922Y3175
X84668Y14986
X77181Y15373
X74254Y2921
X80135Y18212
X83003Y13208
X82763Y3683
X86954Y16383
X85854Y3302
X75397Y9398
X74856Y3302
X72443Y3683
X77417Y10668
X83520Y14611
X68412Y5207
X87696Y3069
X69174Y3429
X87457Y3943
X88224Y6223
X79919Y7147
X109464Y13843
X99304Y18669
X107686Y14986
X97526Y13970
X92613Y3048
X90414Y10033
X97653Y18288
X105019Y9271
X101463Y3048
X110480Y2667
X108702Y2794
X97526Y12192
X110861Y16764
X110861Y12954
X109464Y17272
X107559Y7620
X97907Y17526
X109337Y20701
X110734Y20193
X110353Y17780
X91557Y2540
X96637Y4318
X107559Y5969
X107559Y9398
X98161Y7112
X97526Y16002
X101717Y14986
X107432Y16129
X99812Y8255
X98034Y8763
X99304Y15113
X99939Y5969
X105019Y6096
X98542Y15367
X99583Y5588
X105019Y5461
X106026Y13399
X106363Y3048
X106422Y5963
X99812Y7112
X108905Y13630
X109464Y12446
X103622Y14859
X100066Y14859
X99939Y11811
X95613Y3202
X97399Y9398
X102860Y15164
X103495Y18923
X102987Y17145
X104130Y13081
X101133Y14859
X101260Y17653
X99177Y21539
X101463Y20625
X105654Y17907
X101717Y17780
X99558Y20879
X104130Y11938
X103622Y14097
X102174Y17780
X99970Y21240
X99926Y9271
X104136Y14599
X103622Y9271
X111293Y18415
X109337Y3556
X111623Y19177
X110480Y3937
X101283Y7158
X101613Y6731
X100828Y6858
X98034Y14732
X94351Y4064
X98415Y5461
X97864Y15283
X94953Y4191
X99126Y5451
X104892Y11938
X105146Y3175
X106416Y14351
X104511Y15316
X108829Y15240
X109007Y3175
X106881Y7536
X106289Y18923
X106814Y12319
X106416Y13843
X97696Y3640
X106162Y5080
X106213Y10414
X100320Y16891
X105019Y8763
X105019Y10795
X109337Y7874
X106035Y12827
X105984Y4572
X106162Y11560
X105146Y14478
X105182Y4318
X99028Y3273
X97272Y2794
X100802Y17780
X99431Y14478
X98034Y3302
X99431Y6096
X98062Y5814
X101463Y5207
X100955Y5207
X109210Y13208
X107889Y4826
X107432Y3175
X107178Y14986
X99691Y15373
X96764Y2921
X102645Y18212
X105512Y13208
X105273Y3683
X109464Y16383
X108363Y3302
X97907Y9398
X97366Y3302
X94953Y3683
X99926Y10668
X106029Y14611
X90922Y5207
X110205Y3069
X91684Y3429
X109966Y3943
X110734Y6223
X102428Y7147
X131971Y13843
X121811Y18669
X130193Y14986
X120033Y13970
X115120Y3048
X112921Y10033
X120160Y18288
X127526Y9271
X123970Y3048
X132987Y2667
X131209Y2794
X120033Y12192
X133368Y16764
X133368Y12954
X131971Y17272
X130066Y7620
X120414Y17526
X131844Y20701
X133241Y20193
X132860Y17780
X114064Y2540
X119144Y4318
X130066Y5969
X130066Y9398
X120668Y7112
X120033Y16002
X124224Y14986
X129939Y16129
X122319Y8255
X120541Y8763
X121811Y15113
X122446Y5969
X127526Y6096
X121049Y15367
X122090Y5588
X127526Y5461
X128533Y13399
X128870Y3048
X128929Y5963
X122319Y7112
X131412Y13630
X131971Y12446
X126129Y14859
X122573Y14859
X122446Y11811
X118120Y3202
X119906Y9398
X125367Y15164
X126002Y18923
X125494Y17145
X126637Y13081
X123640Y14859
X123767Y17653
X121684Y21539
X123970Y20625
X128161Y17907
X124224Y17780
X122065Y20879
X126637Y11938
X126129Y14097
X124681Y17780
X122477Y21240
X122433Y9271
X126643Y14599
X126129Y9271
X133800Y18415
X131844Y3556
X134130Y19177
X132987Y3937
X123790Y7158
X124120Y6731
X123335Y6858
X120541Y14732
X116858Y4064
X120922Y5461
X120371Y15283
X117460Y4191
X121633Y5451
X127399Y11938
X127653Y3175
X128923Y14351
X127018Y15316
X131336Y15240
X131514Y3175
X129388Y7536
X128796Y18923
X129321Y12319
X128923Y13843
X120203Y3640
X128669Y5080
X128720Y10414
X122827Y16891
X127526Y8763
X127526Y10795
X131844Y7874
X128542Y12827
X128491Y4572
X128669Y11560
X127653Y14478
X127689Y4318
X121535Y3273
X119779Y2794
X123309Y17780
X121938Y14478
X120541Y3302
X121938Y6096
X120569Y5814
X123970Y5207
X123462Y5207
X131717Y13208
X130396Y4826
X129939Y3175
X129685Y14986
X122198Y15373
X119271Y2921
X125152Y18212
X128019Y13208
X127780Y3683
X131971Y16383
X130870Y3302
X120414Y9398
X119873Y3302
X117460Y3683
X122433Y10668
X128536Y14611
X113429Y5207
X132712Y3069
X114191Y3429
X132473Y3943
X133241Y6223
X124935Y7147
X154480Y13843
X144320Y18669
X152702Y14986
X142542Y13970
X137629Y3048
X135430Y10033
X142669Y18288
X150035Y9271
X146479Y3048
X155496Y2667
X153718Y2794
X142542Y12192
X155877Y16764
X155877Y12954
X154480Y17272
X152575Y7620
X142923Y17526
X154353Y20701
X155750Y20193
X155369Y17780
X136573Y2540
X141653Y4318
X152575Y5969
X152575Y9398
X143177Y7112
X142542Y16002
X146733Y14986
X152448Y16129
X144828Y8255
X143050Y8763
X144320Y15113
X144955Y5969
X150035Y6096
X143558Y15367
X144600Y5588
X150035Y5461
X151042Y13399
X151379Y3048
X151438Y5963
X144828Y7112
X153921Y13630
X154480Y12446
X148638Y14859
X145082Y14859
X144955Y11811
X140629Y3202
X142415Y9398
X147876Y15164
X148511Y18923
X148003Y17145
X149146Y13081
X146149Y14859
X146276Y17653
X144193Y21539
X146479Y20625
X150670Y17907
X146733Y17780
X144574Y20879
X149146Y11938
X148638Y14097
X147190Y17780
X144986Y21240
X144943Y9271
X149152Y14599
X148638Y9271
X156309Y18415
X154353Y3556
X156639Y19177
X155496Y3937
X146299Y7158
X146629Y6731
X145844Y6858
X143050Y14732
X139367Y4064
X143431Y5461
X142880Y15283
X139969Y4191
X144142Y5451
X149908Y11938
X150162Y3175
X151432Y14351
X149527Y15316
X153845Y15240
X154023Y3175
X151897Y7536
X151305Y18923
X151831Y12319
X151432Y13843
X142712Y3640
X151178Y5080
X151229Y10414
X145336Y16891
X150035Y8763
X150035Y10795
X154353Y7874
X151051Y12827
X151000Y4572
X151178Y11560
X150162Y14478
X150198Y4318
X144045Y3273
X142288Y2794
X145819Y17780
X144447Y14478
X143050Y3302
X144447Y6096
X143078Y5814
X146479Y5207
X145971Y5207
X154226Y13208
X152905Y4826
X152448Y3175
X152194Y14986
X144707Y15373
X141780Y2921
X147661Y18212
X150529Y13208
X150289Y3683
X154480Y16383
X153379Y3302
X142923Y9398
X142382Y3302
X139969Y3683
X144943Y10668
X151045Y14611
X135938Y5207
X155222Y3069
X136700Y3429
X154982Y3943
X155750Y6223
X147444Y7147
X176987Y13843
X166827Y18669
X175209Y14986
X165049Y13970
X160136Y3048
X157937Y10033
X165176Y18288
X172542Y9271
X168986Y3048
X178003Y2667
X176225Y2794
X165049Y12192
X178384Y16764
X178384Y12954
X176987Y17272
X175082Y7620
X165430Y17526
X176860Y20701
X178257Y20193
X177876Y17780
X159080Y2540
X164160Y4318
X175082Y5969
X175082Y9398
X165684Y7112
X165049Y16002
X169240Y14986
X174955Y16129
X167335Y8255
X165557Y8763
X166827Y15113
X167462Y5969
X172542Y6096
X166065Y15367
X167107Y5588
X172542Y5461
X173549Y13399
X173886Y3048
X173945Y5963
X167335Y7112
X176428Y13630
X176987Y12446
X171145Y14859
X167589Y14859
X167462Y11811
X163136Y3202
X164922Y9398
X170383Y15164
X171018Y18923
X170510Y17145
X171653Y13081
X168656Y14859
X168783Y17653
X166700Y21539
X168986Y20625
X173177Y17907
X169240Y17780
X167081Y20879
X171653Y11938
X171145Y14097
X169697Y17780
X167493Y21240
X167450Y9271
X171659Y14599
X171145Y9271
X178816Y18415
X176860Y3556
X179146Y19177
X178003Y3937
X168806Y7158
X169136Y6731
X168351Y6858
X165557Y14732
X161874Y4064
X165938Y5461
X165387Y15283
X162476Y4191
X166649Y5451
X172415Y11938
X172669Y3175
X173939Y14351
X172034Y15316
X176352Y15240
X176530Y3175
X174404Y7536
X173812Y18923
X174338Y12319
X173939Y13843
X165219Y3640
X173685Y5080
X173736Y10414
X167843Y16891
X172542Y8763
X172542Y10795
X176860Y7874
X173558Y12827
X173507Y4572
X173685Y11560
X172669Y14478
X172705Y4318
X166552Y3273
X164795Y2794
X168326Y17780
X166954Y14478
X165557Y3302
X166954Y6096
X165585Y5814
X168986Y5207
X168478Y5207
X176733Y13208
X175412Y4826
X174955Y3175
X174701Y14986
X167214Y15373
X164287Y2921
X170168Y18212
X173036Y13208
X172796Y3683
X176987Y16383
X175886Y3302
X165430Y9398
X164889Y3302
X162476Y3683
X167450Y10668
X173552Y14611
X158445Y5207
X177729Y3069
X159207Y3429
X177489Y3943
X178257Y6223
X169951Y7147
X2568Y56007
X12728Y51181
X4346Y54864
X14506Y55880
X19419Y66802
X21618Y59817
X14379Y51562
X7013Y60579
X10569Y66802
X1552Y67183
X3330Y67056
X14506Y57658
X1171Y53086
X1171Y56896
X2568Y52578
X4473Y62230
X14125Y52324
X2695Y49149
X1298Y49657
X1679Y52070
X20475Y67310
X15395Y65532
X4473Y63881
X4473Y60452
X13871Y62738
X14506Y53848
X10315Y54864
X4600Y53721
X12220Y61595
X13998Y61087
X12728Y54737
X12093Y63881
X7013Y63754
X13490Y54483
X12449Y64262
X7013Y64389
X6006Y56451
X5669Y66802
X5610Y63887
X12220Y62738
X3127Y56220
X2568Y57404
X8410Y54991
X11966Y54991
X12093Y58039
X16419Y66648
X14633Y60452
X9172Y54686
X8537Y50927
X9045Y52705
X7902Y56769
X10899Y54991
X10772Y52197
X12855Y48311
X10569Y49225
X6378Y51943
X10315Y52070
X12474Y48971
X7902Y57912
X8410Y55753
X9858Y52070
X12062Y48610
X12106Y60579
X7896Y55251
X8410Y60579
X739Y51435
X2695Y66294
X409Y50673
X1552Y65913
X10749Y62692
X10419Y63119
X11204Y62992
X13998Y55118
X17681Y65786
X13617Y64389
X14168Y54567
X17079Y65659
X12906Y64399
X7140Y57912
X6886Y66675
X5616Y55499
X7521Y54534
X3203Y54610
X3025Y66675
X5151Y62314
X5743Y50927
X5217Y57531
X5616Y56007
X14336Y66210
X5870Y64770
X5819Y59436
X11712Y52959
X7013Y61087
X7013Y59055
X2695Y61976
X5997Y57023
X6048Y65278
X5870Y58290
X6886Y55372
X6850Y65532
X13004Y66577
X14760Y67056
X11229Y52070
X12601Y55372
X13998Y66548
X12601Y63754
X13970Y64036
X10569Y64643
X11077Y64643
X2822Y56642
X4143Y65024
X4600Y66675
X4854Y54864
X12341Y54477
X15268Y66929
X9387Y51638
X6520Y56642
X6759Y66167
X2568Y53467
X3669Y66548
X14125Y60452
X14666Y66548
X17079Y66167
X12106Y59182
X6003Y55239
X21110Y64643
X1826Y66781
X20348Y66421
X2066Y65907
X1298Y63627
X9604Y62703
X25077Y56007
X35237Y51181
X26855Y54864
X37015Y55880
X41928Y66802
X44127Y59817
X36888Y51562
X29522Y60579
X33078Y66802
X24061Y67183
X25839Y67056
X37015Y57658
X23680Y53086
X23680Y56896
X25077Y52578
X26982Y62230
X36634Y52324
X25204Y49149
X23807Y49657
X24188Y52070
X42984Y67310
X37904Y65532
X26982Y63881
X26982Y60452
X36380Y62738
X37015Y53848
X32824Y54864
X27109Y53721
X34729Y61595
X36507Y61087
X35237Y54737
X34602Y63881
X29522Y63754
X35999Y54483
X34958Y64262
X29522Y64389
X28515Y56451
X28178Y66802
X28120Y63887
X34729Y62738
X25636Y56220
X25077Y57404
X30919Y54991
X34475Y54991
X34602Y58039
X38928Y66648
X37142Y60452
X31681Y54686
X31046Y50927
X31554Y52705
X30411Y56769
X33409Y54991
X33282Y52197
X35364Y48311
X33078Y49225
X28887Y51943
X32824Y52070
X34983Y48971
X30411Y57912
X30919Y55753
X32367Y52070
X34571Y48610
X34615Y60579
X30406Y55251
X30919Y60579
X23249Y51435
X25204Y66294
X22918Y50673
X24061Y65913
X33258Y62692
X32928Y63119
X33713Y62992
X36507Y55118
X40190Y65786
X36126Y64389
X36677Y54567
X39589Y65659
X35415Y64399
X29649Y57912
X29395Y66675
X28125Y55499
X30030Y54534
X25712Y54610
X25535Y66675
X27660Y62314
X28252Y50927
X27727Y57531
X28125Y56007
X36845Y66210
X28379Y64770
X28329Y59436
X34221Y52959
X29522Y61087
X29522Y59055
X25204Y61976
X28506Y57023
X28557Y65278
X28379Y58290
X29395Y55372
X29359Y65532
X35513Y66577
X37269Y67056
X33739Y52070
X35110Y55372
X36507Y66548
X35110Y63754
X36479Y64036
X33078Y64643
X33586Y64643
X25331Y56642
X26652Y65024
X27109Y66675
X27363Y54864
X34851Y54477
X37777Y66929
X31896Y51638
X29029Y56642
X29268Y66167
X25077Y53467
X26178Y66548
X36634Y60452
X37176Y66548
X39589Y66167
X34615Y59182
X28512Y55239
X43619Y64643
X24336Y66781
X42857Y66421
X24575Y65907
X23807Y63627
X32113Y62703
X47584Y56007
X57744Y51181
X49362Y54864
X59522Y55880
X64435Y66802
X66634Y59817
X59395Y51562
X52029Y60579
X55585Y66802
X46568Y67183
X48346Y67056
X59522Y57658
X46187Y53086
X46187Y56896
X47584Y52578
X49489Y62230
X59141Y52324
X47711Y49149
X46314Y49657
X46695Y52070
X65491Y67310
X60411Y65532
X49489Y63881
X49489Y60452
X58887Y62738
X59522Y53848
X55331Y54864
X49616Y53721
X57236Y61595
X59014Y61087
X57744Y54737
X57109Y63881
X52029Y63754
X58506Y54483
X57465Y64262
X52029Y64389
X51022Y56451
X50685Y66802
X50627Y63887
X57236Y62738
X48143Y56220
X47584Y57404
X53426Y54991
X56982Y54991
X57109Y58039
X61435Y66648
X59649Y60452
X54188Y54686
X53553Y50927
X54061Y52705
X52918Y56769
X55916Y54991
X55789Y52197
X57871Y48311
X55585Y49225
X51394Y51943
X55331Y52070
X57490Y48971
X52918Y57912
X53426Y55753
X54874Y52070
X57078Y48610
X57122Y60579
X52913Y55251
X53426Y60579
X45756Y51435
X47711Y66294
X45425Y50673
X46568Y65913
X55765Y62692
X55435Y63119
X56220Y62992
X59014Y55118
X62697Y65786
X58633Y64389
X59184Y54567
X62096Y65659
X57922Y64399
X52156Y57912
X51902Y66675
X50632Y55499
X52537Y54534
X48219Y54610
X48042Y66675
X50167Y62314
X50759Y50927
X50234Y57531
X50632Y56007
X59352Y66210
X50886Y64770
X50836Y59436
X56728Y52959
X52029Y61087
X52029Y59055
X47711Y61976
X51013Y57023
X51064Y65278
X50886Y58290
X51902Y55372
X51866Y65532
X58020Y66577
X59776Y67056
X56246Y52070
X57617Y55372
X59014Y66548
X57617Y63754
X58986Y64036
X55585Y64643
X56093Y64643
X47838Y56642
X49159Y65024
X49616Y66675
X49870Y54864
X57358Y54477
X60284Y66929
X54403Y51638
X51536Y56642
X51775Y66167
X47584Y53467
X48685Y66548
X59141Y60452
X59683Y66548
X62096Y66167
X57122Y59182
X51019Y55239
X66126Y64643
X46843Y66781
X65364Y66421
X47082Y65907
X46314Y63627
X54620Y62703
X70094Y56007
X80254Y51181
X71872Y54864
X82032Y55880
X86945Y66802
X89144Y59817
X81905Y51562
X74539Y60579
X78095Y66802
X69078Y67183
X70856Y67056
X82032Y57658
X68697Y53086
X68697Y56896
X70094Y52578
X71999Y62230
X81651Y52324
X70221Y49149
X68824Y49657
X69205Y52070
X88001Y67310
X82921Y65532
X71999Y63881
X71999Y60452
X81397Y62738
X82032Y53848
X77841Y54864
X72126Y53721
X79746Y61595
X81524Y61087
X80254Y54737
X79619Y63881
X74539Y63754
X81016Y54483
X79974Y64262
X74539Y64389
X73532Y56451
X73195Y66802
X73136Y63887
X79746Y62738
X70653Y56220
X70094Y57404
X75936Y54991
X79492Y54991
X79619Y58039
X83945Y66648
X82159Y60452
X76698Y54686
X76063Y50927
X76571Y52705
X75428Y56769
X78425Y54991
X78298Y52197
X80381Y48311
X78095Y49225
X73904Y51943
X77841Y52070
X80000Y48971
X75428Y57912
X75936Y55753
X77384Y52070
X79588Y48610
X79632Y60579
X75422Y55251
X75936Y60579
X68265Y51435
X70221Y66294
X67935Y50673
X69078Y65913
X78275Y62692
X77945Y63119
X78730Y62992
X81524Y55118
X85207Y65786
X81143Y64389
X81694Y54567
X84605Y65659
X80432Y64399
X74666Y57912
X74412Y66675
X73142Y55499
X75047Y54534
X70729Y54610
X70551Y66675
X72677Y62314
X73269Y50927
X72743Y57531
X73142Y56007
X81862Y66210
X73396Y64770
X73345Y59436
X79238Y52959
X74539Y61087
X74539Y59055
X70221Y61976
X73523Y57023
X73574Y65278
X73396Y58290
X74412Y55372
X74376Y65532
X80529Y66577
X82286Y67056
X78755Y52070
X80127Y55372
X81524Y66548
X80127Y63754
X81496Y64036
X78095Y64643
X78603Y64643
X70348Y56642
X71669Y65024
X72126Y66675
X72380Y54864
X79867Y54477
X82794Y66929
X76913Y51638
X74045Y56642
X74285Y66167
X70094Y53467
X71195Y66548
X81651Y60452
X82192Y66548
X84605Y66167
X79632Y59182
X73529Y55239
X88636Y64643
X69352Y66781
X87874Y66421
X69592Y65907
X68824Y63627
X77130Y62703
X92601Y56007
X102761Y51181
X94379Y54864
X104539Y55880
X109452Y66802
X111651Y59817
X104412Y51562
X97046Y60579
X100602Y66802
X91585Y67183
X93363Y67056
X104539Y57658
X91204Y53086
X91204Y56896
X92601Y52578
X94506Y62230
X104158Y52324
X92728Y49149
X91331Y49657
X91712Y52070
X110508Y67310
X105428Y65532
X94506Y63881
X94506Y60452
X103904Y62738
X104539Y53848
X100348Y54864
X94633Y53721
X102253Y61595
X104031Y61087
X102761Y54737
X102126Y63881
X97046Y63754
X103523Y54483
X102481Y64262
X97046Y64389
X96039Y56451
X95702Y66802
X95643Y63887
X102253Y62738
X93160Y56220
X92601Y57404
X98443Y54991
X101999Y54991
X102126Y58039
X106452Y66648
X104666Y60452
X99205Y54686
X98570Y50927
X99078Y52705
X97935Y56769
X100932Y54991
X100805Y52197
X102888Y48311
X100602Y49225
X96411Y51943
X100348Y52070
X102507Y48971
X97935Y57912
X98443Y55753
X99891Y52070
X102095Y48610
X102138Y60579
X97929Y55251
X98443Y60579
X90772Y51435
X92728Y66294
X90442Y50673
X91585Y65913
X100782Y62692
X100452Y63119
X101237Y62992
X104031Y55118
X107714Y65786
X103650Y64389
X104201Y54567
X107112Y65659
X102939Y64399
X97173Y57912
X96919Y66675
X95649Y55499
X97554Y54534
X93236Y54610
X93058Y66675
X95184Y62314
X95776Y50927
X95250Y57531
X95649Y56007
X104369Y66210
X95903Y64770
X95852Y59436
X101745Y52959
X97046Y61087
X97046Y59055
X92728Y61976
X96030Y57023
X96081Y65278
X95903Y58290
X96919Y55372
X96883Y65532
X103036Y66577
X104793Y67056
X101262Y52070
X102634Y55372
X104031Y66548
X102634Y63754
X104003Y64036
X100602Y64643
X101110Y64643
X92855Y56642
X94176Y65024
X94633Y66675
X94887Y54864
X102374Y54477
X105301Y66929
X99420Y51638
X96552Y56642
X96792Y66167
X92601Y53467
X93702Y66548
X104158Y60452
X104699Y66548
X107112Y66167
X102138Y59182
X96036Y55239
X111143Y64643
X91859Y66781
X110381Y66421
X92099Y65907
X91331Y63627
X99637Y62703
X115110Y56007
X125270Y51181
X116888Y54864
X127048Y55880
X131961Y66802
X134160Y59817
X126921Y51562
X119555Y60579
X123111Y66802
X114094Y67183
X115872Y67056
X127048Y57658
X113713Y53086
X113713Y56896
X115110Y52578
X117015Y62230
X126667Y52324
X115237Y49149
X113840Y49657
X114221Y52070
X133017Y67310
X127937Y65532
X117015Y63881
X117015Y60452
X126413Y62738
X127048Y53848
X122857Y54864
X117142Y53721
X124762Y61595
X126540Y61087
X125270Y54737
X124635Y63881
X119555Y63754
X126032Y54483
X124991Y64262
X119555Y64389
X118548Y56451
X118211Y66802
X118152Y63887
X124762Y62738
X115669Y56220
X115110Y57404
X120952Y54991
X124508Y54991
X124635Y58039
X128961Y66648
X127175Y60452
X121714Y54686
X121079Y50927
X121587Y52705
X120444Y56769
X123441Y54991
X123314Y52197
X125397Y48311
X123111Y49225
X118920Y51943
X122857Y52070
X125016Y48971
X120444Y57912
X120952Y55753
X122400Y52070
X124604Y48610
X124648Y60579
X120438Y55251
X120952Y60579
X113281Y51435
X115237Y66294
X112951Y50673
X114094Y65913
X123291Y62692
X122961Y63119
X123746Y62992
X126540Y55118
X130223Y65786
X126159Y64389
X126710Y54567
X129621Y65659
X125448Y64399
X119682Y57912
X119428Y66675
X118158Y55499
X120063Y54534
X115745Y54610
X115567Y66675
X117693Y62314
X118285Y50927
X117760Y57531
X118158Y56007
X126878Y66210
X118412Y64770
X118361Y59436
X124254Y52959
X119555Y61087
X119555Y59055
X115237Y61976
X118539Y57023
X118590Y65278
X118412Y58290
X119428Y55372
X119392Y65532
X125546Y66577
X127302Y67056
X123772Y52070
X125143Y55372
X126540Y66548
X125143Y63754
X126512Y64036
X123111Y64643
X123619Y64643
X115364Y56642
X116685Y65024
X117142Y66675
X117396Y54864
X124883Y54477
X127810Y66929
X121929Y51638
X119062Y56642
X119301Y66167
X115110Y53467
X116211Y66548
X126667Y60452
X127208Y66548
X129621Y66167
X124648Y59182
X118545Y55239
X133652Y64643
X114369Y66781
X132890Y66421
X114608Y65907
X113840Y63627
X122146Y62703
X137617Y56007
X147777Y51181
X139395Y54864
X149555Y55880
X154468Y66802
X156667Y59817
X149428Y51562
X142062Y60579
X145618Y66802
X136601Y67183
X138379Y67056
X149555Y57658
X136220Y53086
X136220Y56896
X137617Y52578
X139522Y62230
X149174Y52324
X137744Y49149
X136347Y49657
X136728Y52070
X155524Y67310
X150444Y65532
X139522Y63881
X139522Y60452
X148920Y62738
X149555Y53848
X145364Y54864
X139649Y53721
X147269Y61595
X149047Y61087
X147777Y54737
X147142Y63881
X142062Y63754
X148539Y54483
X147498Y64262
X142062Y64389
X141055Y56451
X140718Y66802
X140659Y63887
X147269Y62738
X138176Y56220
X137617Y57404
X143459Y54991
X147015Y54991
X147142Y58039
X151468Y66648
X149682Y60452
X144221Y54686
X143586Y50927
X144094Y52705
X142951Y56769
X145948Y54991
X145821Y52197
X147904Y48311
X145618Y49225
X141427Y51943
X145364Y52070
X147523Y48971
X142951Y57912
X143459Y55753
X144907Y52070
X147111Y48610
X147155Y60579
X142945Y55251
X143459Y60579
X135788Y51435
X137744Y66294
X135458Y50673
X136601Y65913
X145798Y62692
X145468Y63119
X146253Y62992
X149047Y55118
X152730Y65786
X148666Y64389
X149217Y54567
X152128Y65659
X147955Y64399
X142189Y57912
X141935Y66675
X140665Y55499
X142570Y54534
X138252Y54610
X138074Y66675
X140200Y62314
X140792Y50927
X140267Y57531
X140665Y56007
X149385Y66210
X140919Y64770
X140868Y59436
X146761Y52959
X142062Y61087
X142062Y59055
X137744Y61976
X141046Y57023
X141097Y65278
X140919Y58290
X141935Y55372
X141899Y65532
X148053Y66577
X149809Y67056
X146279Y52070
X147650Y55372
X149047Y66548
X147650Y63754
X149019Y64036
X145618Y64643
X146126Y64643
X137871Y56642
X139192Y65024
X139649Y66675
X139903Y54864
X147390Y54477
X150317Y66929
X144436Y51638
X141569Y56642
X141808Y66167
X137617Y53467
X138718Y66548
X149174Y60452
X149715Y66548
X152128Y66167
X147155Y59182
X141052Y55239
X156159Y64643
X136876Y66781
X155397Y66421
X137115Y65907
X136347Y63627
X144653Y62703
X160124Y56007
X170284Y51181
X161902Y54864
X172062Y55880
X176975Y66802
X179174Y59817
X171935Y51562
X164569Y60579
X168125Y66802
X159108Y67183
X160886Y67056
X172062Y57658
X158727Y53086
X158727Y56896
X160124Y52578
X162029Y62230
X171681Y52324
X160251Y49149
X158854Y49657
X159235Y52070
X178031Y67310
X172951Y65532
X162029Y63881
X162029Y60452
X171427Y62738
X172062Y53848
X167871Y54864
X162156Y53721
X169776Y61595
X171554Y61087
X170284Y54737
X169649Y63881
X164569Y63754
X171046Y54483
X170005Y64262
X164569Y64389
X163562Y56451
X163225Y66802
X163166Y63887
X169776Y62738
X160683Y56220
X160124Y57404
X165966Y54991
X169522Y54991
X169649Y58039
X173975Y66648
X172189Y60452
X166728Y54686
X166093Y50927
X166601Y52705
X165458Y56769
X168455Y54991
X168328Y52197
X170411Y48311
X168125Y49225
X163934Y51943
X167871Y52070
X170030Y48971
X165458Y57912
X165966Y55753
X167414Y52070
X169618Y48610
X169662Y60579
X165452Y55251
X165966Y60579
X158295Y51435
X160251Y66294
X157965Y50673
X159108Y65913
X168305Y62692
X167975Y63119
X168760Y62992
X171554Y55118
X175237Y65786
X171173Y64389
X171724Y54567
X174635Y65659
X170462Y64399
X164696Y57912
X164442Y66675
X163172Y55499
X165077Y54534
X160759Y54610
X160581Y66675
X162707Y62314
X163299Y50927
X162774Y57531
X163172Y56007
X171892Y66210
X163426Y64770
X163375Y59436
X169268Y52959
X164569Y61087
X164569Y59055
X160251Y61976
X163553Y57023
X163604Y65278
X163426Y58290
X164442Y55372
X164406Y65532
X170560Y66577
X172316Y67056
X168786Y52070
X170157Y55372
X171554Y66548
X170157Y63754
X171526Y64036
X168125Y64643
X168633Y64643
X160378Y56642
X161699Y65024
X162156Y66675
X162410Y54864
X169897Y54477
X172824Y66929
X166943Y51638
X164076Y56642
X164315Y66167
X160124Y53467
X161225Y66548
X171681Y60452
X172222Y66548
X174635Y66167
X169662Y59182
X163559Y55239
X178666Y64643
X159383Y66781
X177904Y66421
X159622Y65907
X158854Y63627
X167160Y62703
T2
X12900Y21000
X17100Y21000
X15000Y19700
X35407Y21000
X39607Y21000
X37507Y19700
X57916Y21000
X62116Y21000
X60016Y19700
X80423Y21000
X84623Y21000
X82523Y19700
X102933Y21000
X107133Y21000
X105033Y19700
X125440Y21000
X129640Y21000
X127540Y19700
X147949Y21000
X152149Y21000
X150049Y19700
X170456Y21000
X174656Y21000
X172556Y19700
X9099Y48850
X4899Y48850
X6999Y50150
X31608Y48850
X27408Y48850
X29508Y50150
X54115Y48850
X49915Y48850
X52015Y50150
X76625Y48850
X72425Y48850
X74525Y50150
X99132Y48850
X94932Y48850
X97032Y50150
X121641Y48850
X117441Y48850
X119541Y50150
X144148Y48850
X139948Y48850
X142048Y50150
X166655Y48850
X162455Y48850
X164555Y50150
M30