G04 EAGLE Gerber RS-274X export*
G75*
%MOMM*%
%FSLAX34Y34*%
%LPD*%
%INSolderpaste Bottom*%
%IPPOS*%
%AMOC8*
5,1,8,0,0,1.08239X$1,22.5*%
G01*
%ADD10R,0.850000X0.500000*%
%ADD11R,0.800000X0.800000*%
%ADD12R,0.600000X0.600000*%


D10*
X147750Y139050D03*
X147750Y126350D03*
X147750Y113650D03*
X147750Y100950D03*
X92250Y113650D03*
X92250Y100950D03*
X92250Y126350D03*
X92250Y139050D03*
D11*
X120000Y120000D03*
D12*
X81250Y139930D03*
X81250Y129930D03*
D10*
X372819Y139050D03*
X372819Y126350D03*
X372819Y113650D03*
X372819Y100950D03*
X317319Y113650D03*
X317319Y100950D03*
X317319Y126350D03*
X317319Y139050D03*
D11*
X345069Y120000D03*
D12*
X306319Y139930D03*
X306319Y129930D03*
D10*
X597914Y139050D03*
X597914Y126350D03*
X597914Y113650D03*
X597914Y100950D03*
X542414Y113650D03*
X542414Y100950D03*
X542414Y126350D03*
X542414Y139050D03*
D11*
X570164Y120000D03*
D12*
X531414Y139930D03*
X531414Y129930D03*
D10*
X822984Y139050D03*
X822984Y126350D03*
X822984Y113650D03*
X822984Y100950D03*
X767484Y113650D03*
X767484Y100950D03*
X767484Y126350D03*
X767484Y139050D03*
D11*
X795234Y120000D03*
D12*
X756484Y139930D03*
X756484Y129930D03*
D10*
X1048078Y139050D03*
X1048078Y126350D03*
X1048078Y113650D03*
X1048078Y100950D03*
X992578Y113650D03*
X992578Y100950D03*
X992578Y126350D03*
X992578Y139050D03*
D11*
X1020328Y120000D03*
D12*
X981578Y139930D03*
X981578Y129930D03*
D10*
X1273148Y139050D03*
X1273148Y126350D03*
X1273148Y113650D03*
X1273148Y100950D03*
X1217648Y113650D03*
X1217648Y100950D03*
X1217648Y126350D03*
X1217648Y139050D03*
D11*
X1245398Y120000D03*
D12*
X1206648Y139930D03*
X1206648Y129930D03*
D10*
X1498243Y139050D03*
X1498243Y126350D03*
X1498243Y113650D03*
X1498243Y100950D03*
X1442743Y113650D03*
X1442743Y100950D03*
X1442743Y126350D03*
X1442743Y139050D03*
D11*
X1470493Y120000D03*
D12*
X1431743Y139930D03*
X1431743Y129930D03*
D10*
X1723312Y139050D03*
X1723312Y126350D03*
X1723312Y113650D03*
X1723312Y100950D03*
X1667812Y113650D03*
X1667812Y100950D03*
X1667812Y126350D03*
X1667812Y139050D03*
D11*
X1695562Y120000D03*
D12*
X1656812Y139930D03*
X1656812Y129930D03*
D10*
X72239Y559450D03*
X72239Y572150D03*
X72239Y584850D03*
X72239Y597550D03*
X127739Y584850D03*
X127739Y597550D03*
X127739Y572150D03*
X127739Y559450D03*
D11*
X99989Y578500D03*
D12*
X138739Y558570D03*
X138739Y568570D03*
D10*
X297334Y559450D03*
X297334Y572150D03*
X297334Y584850D03*
X297334Y597550D03*
X352834Y584850D03*
X352834Y597550D03*
X352834Y572150D03*
X352834Y559450D03*
D11*
X325084Y578500D03*
D12*
X363834Y558570D03*
X363834Y568570D03*
D10*
X522404Y559450D03*
X522404Y572150D03*
X522404Y584850D03*
X522404Y597550D03*
X577904Y584850D03*
X577904Y597550D03*
X577904Y572150D03*
X577904Y559450D03*
D11*
X550154Y578500D03*
D12*
X588904Y558570D03*
X588904Y568570D03*
D10*
X747498Y559450D03*
X747498Y572150D03*
X747498Y584850D03*
X747498Y597550D03*
X802998Y584850D03*
X802998Y597550D03*
X802998Y572150D03*
X802998Y559450D03*
D11*
X775248Y578500D03*
D12*
X813998Y558570D03*
X813998Y568570D03*
D10*
X972568Y559450D03*
X972568Y572150D03*
X972568Y584850D03*
X972568Y597550D03*
X1028068Y584850D03*
X1028068Y597550D03*
X1028068Y572150D03*
X1028068Y559450D03*
D11*
X1000318Y578500D03*
D12*
X1039068Y558570D03*
X1039068Y568570D03*
D10*
X1197663Y559450D03*
X1197663Y572150D03*
X1197663Y584850D03*
X1197663Y597550D03*
X1253163Y584850D03*
X1253163Y597550D03*
X1253163Y572150D03*
X1253163Y559450D03*
D11*
X1225413Y578500D03*
D12*
X1264163Y558570D03*
X1264163Y568570D03*
D10*
X1422732Y559450D03*
X1422732Y572150D03*
X1422732Y584850D03*
X1422732Y597550D03*
X1478232Y584850D03*
X1478232Y597550D03*
X1478232Y572150D03*
X1478232Y559450D03*
D11*
X1450482Y578500D03*
D12*
X1489232Y558570D03*
X1489232Y568570D03*
D10*
X1647801Y559450D03*
X1647801Y572150D03*
X1647801Y584850D03*
X1647801Y597550D03*
X1703301Y584850D03*
X1703301Y597550D03*
X1703301Y572150D03*
X1703301Y559450D03*
D11*
X1675551Y578500D03*
D12*
X1714301Y558570D03*
X1714301Y568570D03*
M02*
