G04 EAGLE Gerber RS-274X export*
G75*
%MOMM*%
%FSLAX34Y34*%
%LPD*%
%INSolderpaste Top*%
%IPPOS*%
%AMOC8*
5,1,8,0,0,1.08239X$1,22.5*%
G01*
%ADD10C,0.300000*%
%ADD11R,0.600000X0.600000*%
%ADD12R,0.400000X0.600000*%
%ADD13R,0.600000X0.400000*%
%ADD14R,1.800000X1.000000*%
%ADD15R,0.830000X0.630000*%


D10*
X18380Y213500D02*
X18380Y206500D01*
X11380Y206500D01*
X11380Y213500D01*
X18380Y213500D01*
X18380Y209350D02*
X11380Y209350D01*
X11380Y212200D02*
X18380Y212200D01*
X35920Y213500D02*
X35920Y206500D01*
X28920Y206500D01*
X28920Y213500D01*
X35920Y213500D01*
X35920Y209350D02*
X28920Y209350D01*
X28920Y212200D02*
X35920Y212200D01*
D11*
X72780Y210000D03*
X82780Y210000D03*
D12*
X73500Y77800D03*
X84500Y77800D03*
X92500Y77800D03*
X108500Y77800D03*
X112500Y86800D03*
X116500Y77800D03*
X120500Y86800D03*
X124500Y77800D03*
X128500Y86800D03*
X132500Y77800D03*
X136500Y86800D03*
X140500Y77800D03*
X144500Y86800D03*
X148500Y77800D03*
D13*
X182500Y76300D03*
X182500Y84300D03*
X182500Y92300D03*
X182500Y100300D03*
X173500Y104300D03*
X182500Y108300D03*
X173500Y112300D03*
X182500Y116300D03*
X173500Y120300D03*
X182500Y124300D03*
X173500Y128300D03*
X182500Y132300D03*
X173500Y136300D03*
X182500Y140300D03*
X173500Y144300D03*
X182500Y148300D03*
X182500Y156300D03*
X182500Y164300D03*
X182500Y172300D03*
D12*
X172500Y170800D03*
X164500Y170800D03*
X160500Y161800D03*
X156500Y170800D03*
X152500Y161800D03*
X148500Y170800D03*
X144500Y161800D03*
X140500Y170800D03*
X136500Y161800D03*
X128500Y161800D03*
X124500Y170800D03*
X120500Y161800D03*
X116500Y170800D03*
X112500Y161800D03*
X108500Y170800D03*
X104500Y161800D03*
X96500Y161800D03*
X92500Y170800D03*
X88500Y161800D03*
X84500Y170800D03*
X80500Y161800D03*
X73500Y170800D03*
D13*
X116500Y104300D03*
X116500Y112300D03*
X116500Y120300D03*
X116500Y128300D03*
X116500Y136300D03*
X116500Y144300D03*
D11*
X194380Y195100D03*
X184380Y195100D03*
X194380Y184940D03*
X184380Y184940D03*
D14*
X205740Y82750D03*
X205740Y107750D03*
D11*
X210740Y119380D03*
X200740Y119380D03*
X210740Y71120D03*
X200740Y71120D03*
X200740Y138430D03*
X210740Y138430D03*
X200740Y148590D03*
X210740Y148590D03*
X200740Y158750D03*
X210740Y158750D03*
X119300Y196680D03*
X109300Y196680D03*
X119300Y186520D03*
X109300Y186520D03*
D15*
X12700Y87700D03*
X12700Y64700D03*
D10*
X243449Y206500D02*
X243449Y213500D01*
X243449Y206500D02*
X236449Y206500D01*
X236449Y213500D01*
X243449Y213500D01*
X243449Y209350D02*
X236449Y209350D01*
X236449Y212200D02*
X243449Y212200D01*
X260989Y213500D02*
X260989Y206500D01*
X253989Y206500D01*
X253989Y213500D01*
X260989Y213500D01*
X260989Y209350D02*
X253989Y209350D01*
X253989Y212200D02*
X260989Y212200D01*
D11*
X297849Y210000D03*
X307849Y210000D03*
D12*
X298569Y77800D03*
X309569Y77800D03*
X317569Y77800D03*
X333569Y77800D03*
X337569Y86800D03*
X341569Y77800D03*
X345569Y86800D03*
X349569Y77800D03*
X353569Y86800D03*
X357569Y77800D03*
X361569Y86800D03*
X365569Y77800D03*
X369569Y86800D03*
X373569Y77800D03*
D13*
X407569Y76300D03*
X407569Y84300D03*
X407569Y92300D03*
X407569Y100300D03*
X398569Y104300D03*
X407569Y108300D03*
X398569Y112300D03*
X407569Y116300D03*
X398569Y120300D03*
X407569Y124300D03*
X398569Y128300D03*
X407569Y132300D03*
X398569Y136300D03*
X407569Y140300D03*
X398569Y144300D03*
X407569Y148300D03*
X407569Y156300D03*
X407569Y164300D03*
X407569Y172300D03*
D12*
X397569Y170800D03*
X389569Y170800D03*
X385569Y161800D03*
X381569Y170800D03*
X377569Y161800D03*
X373569Y170800D03*
X369569Y161800D03*
X365569Y170800D03*
X361569Y161800D03*
X353569Y161800D03*
X349569Y170800D03*
X345569Y161800D03*
X341569Y170800D03*
X337569Y161800D03*
X333569Y170800D03*
X329569Y161800D03*
X321569Y161800D03*
X317569Y170800D03*
X313569Y161800D03*
X309569Y170800D03*
X305569Y161800D03*
X298569Y170800D03*
D13*
X341569Y104300D03*
X341569Y112300D03*
X341569Y120300D03*
X341569Y128300D03*
X341569Y136300D03*
X341569Y144300D03*
D11*
X419449Y195100D03*
X409449Y195100D03*
X419449Y184940D03*
X409449Y184940D03*
D14*
X430809Y82750D03*
X430809Y107750D03*
D11*
X435809Y119380D03*
X425809Y119380D03*
X435809Y71120D03*
X425809Y71120D03*
X425809Y138430D03*
X435809Y138430D03*
X425809Y148590D03*
X435809Y148590D03*
X425809Y158750D03*
X435809Y158750D03*
X344369Y196680D03*
X334369Y196680D03*
X344369Y186520D03*
X334369Y186520D03*
D15*
X237769Y87700D03*
X237769Y64700D03*
D10*
X468544Y206500D02*
X468544Y213500D01*
X468544Y206500D02*
X461544Y206500D01*
X461544Y213500D01*
X468544Y213500D01*
X468544Y209350D02*
X461544Y209350D01*
X461544Y212200D02*
X468544Y212200D01*
X486084Y213500D02*
X486084Y206500D01*
X479084Y206500D01*
X479084Y213500D01*
X486084Y213500D01*
X486084Y209350D02*
X479084Y209350D01*
X479084Y212200D02*
X486084Y212200D01*
D11*
X522944Y210000D03*
X532944Y210000D03*
D12*
X523664Y77800D03*
X534664Y77800D03*
X542664Y77800D03*
X558664Y77800D03*
X562664Y86800D03*
X566664Y77800D03*
X570664Y86800D03*
X574664Y77800D03*
X578664Y86800D03*
X582664Y77800D03*
X586664Y86800D03*
X590664Y77800D03*
X594664Y86800D03*
X598664Y77800D03*
D13*
X632664Y76300D03*
X632664Y84300D03*
X632664Y92300D03*
X632664Y100300D03*
X623664Y104300D03*
X632664Y108300D03*
X623664Y112300D03*
X632664Y116300D03*
X623664Y120300D03*
X632664Y124300D03*
X623664Y128300D03*
X632664Y132300D03*
X623664Y136300D03*
X632664Y140300D03*
X623664Y144300D03*
X632664Y148300D03*
X632664Y156300D03*
X632664Y164300D03*
X632664Y172300D03*
D12*
X622664Y170800D03*
X614664Y170800D03*
X610664Y161800D03*
X606664Y170800D03*
X602664Y161800D03*
X598664Y170800D03*
X594664Y161800D03*
X590664Y170800D03*
X586664Y161800D03*
X578664Y161800D03*
X574664Y170800D03*
X570664Y161800D03*
X566664Y170800D03*
X562664Y161800D03*
X558664Y170800D03*
X554664Y161800D03*
X546664Y161800D03*
X542664Y170800D03*
X538664Y161800D03*
X534664Y170800D03*
X530664Y161800D03*
X523664Y170800D03*
D13*
X566664Y104300D03*
X566664Y112300D03*
X566664Y120300D03*
X566664Y128300D03*
X566664Y136300D03*
X566664Y144300D03*
D11*
X644544Y195100D03*
X634544Y195100D03*
X644544Y184940D03*
X634544Y184940D03*
D14*
X655904Y82750D03*
X655904Y107750D03*
D11*
X660904Y119380D03*
X650904Y119380D03*
X660904Y71120D03*
X650904Y71120D03*
X650904Y138430D03*
X660904Y138430D03*
X650904Y148590D03*
X660904Y148590D03*
X650904Y158750D03*
X660904Y158750D03*
X569464Y196680D03*
X559464Y196680D03*
X569464Y186520D03*
X559464Y186520D03*
D15*
X462864Y87700D03*
X462864Y64700D03*
D10*
X693614Y206500D02*
X693614Y213500D01*
X693614Y206500D02*
X686614Y206500D01*
X686614Y213500D01*
X693614Y213500D01*
X693614Y209350D02*
X686614Y209350D01*
X686614Y212200D02*
X693614Y212200D01*
X711154Y213500D02*
X711154Y206500D01*
X704154Y206500D01*
X704154Y213500D01*
X711154Y213500D01*
X711154Y209350D02*
X704154Y209350D01*
X704154Y212200D02*
X711154Y212200D01*
D11*
X748014Y210000D03*
X758014Y210000D03*
D12*
X748734Y77800D03*
X759734Y77800D03*
X767734Y77800D03*
X783734Y77800D03*
X787734Y86800D03*
X791734Y77800D03*
X795734Y86800D03*
X799734Y77800D03*
X803734Y86800D03*
X807734Y77800D03*
X811734Y86800D03*
X815734Y77800D03*
X819734Y86800D03*
X823734Y77800D03*
D13*
X857734Y76300D03*
X857734Y84300D03*
X857734Y92300D03*
X857734Y100300D03*
X848734Y104300D03*
X857734Y108300D03*
X848734Y112300D03*
X857734Y116300D03*
X848734Y120300D03*
X857734Y124300D03*
X848734Y128300D03*
X857734Y132300D03*
X848734Y136300D03*
X857734Y140300D03*
X848734Y144300D03*
X857734Y148300D03*
X857734Y156300D03*
X857734Y164300D03*
X857734Y172300D03*
D12*
X847734Y170800D03*
X839734Y170800D03*
X835734Y161800D03*
X831734Y170800D03*
X827734Y161800D03*
X823734Y170800D03*
X819734Y161800D03*
X815734Y170800D03*
X811734Y161800D03*
X803734Y161800D03*
X799734Y170800D03*
X795734Y161800D03*
X791734Y170800D03*
X787734Y161800D03*
X783734Y170800D03*
X779734Y161800D03*
X771734Y161800D03*
X767734Y170800D03*
X763734Y161800D03*
X759734Y170800D03*
X755734Y161800D03*
X748734Y170800D03*
D13*
X791734Y104300D03*
X791734Y112300D03*
X791734Y120300D03*
X791734Y128300D03*
X791734Y136300D03*
X791734Y144300D03*
D11*
X869614Y195100D03*
X859614Y195100D03*
X869614Y184940D03*
X859614Y184940D03*
D14*
X880974Y82750D03*
X880974Y107750D03*
D11*
X885974Y119380D03*
X875974Y119380D03*
X885974Y71120D03*
X875974Y71120D03*
X875974Y138430D03*
X885974Y138430D03*
X875974Y148590D03*
X885974Y148590D03*
X875974Y158750D03*
X885974Y158750D03*
X794534Y196680D03*
X784534Y196680D03*
X794534Y186520D03*
X784534Y186520D03*
D15*
X687934Y87700D03*
X687934Y64700D03*
D10*
X918708Y206500D02*
X918708Y213500D01*
X918708Y206500D02*
X911708Y206500D01*
X911708Y213500D01*
X918708Y213500D01*
X918708Y209350D02*
X911708Y209350D01*
X911708Y212200D02*
X918708Y212200D01*
X936248Y213500D02*
X936248Y206500D01*
X929248Y206500D01*
X929248Y213500D01*
X936248Y213500D01*
X936248Y209350D02*
X929248Y209350D01*
X929248Y212200D02*
X936248Y212200D01*
D11*
X973108Y210000D03*
X983108Y210000D03*
D12*
X973828Y77800D03*
X984828Y77800D03*
X992828Y77800D03*
X1008828Y77800D03*
X1012828Y86800D03*
X1016828Y77800D03*
X1020828Y86800D03*
X1024828Y77800D03*
X1028828Y86800D03*
X1032828Y77800D03*
X1036828Y86800D03*
X1040828Y77800D03*
X1044828Y86800D03*
X1048828Y77800D03*
D13*
X1082828Y76300D03*
X1082828Y84300D03*
X1082828Y92300D03*
X1082828Y100300D03*
X1073828Y104300D03*
X1082828Y108300D03*
X1073828Y112300D03*
X1082828Y116300D03*
X1073828Y120300D03*
X1082828Y124300D03*
X1073828Y128300D03*
X1082828Y132300D03*
X1073828Y136300D03*
X1082828Y140300D03*
X1073828Y144300D03*
X1082828Y148300D03*
X1082828Y156300D03*
X1082828Y164300D03*
X1082828Y172300D03*
D12*
X1072828Y170800D03*
X1064828Y170800D03*
X1060828Y161800D03*
X1056828Y170800D03*
X1052828Y161800D03*
X1048828Y170800D03*
X1044828Y161800D03*
X1040828Y170800D03*
X1036828Y161800D03*
X1028828Y161800D03*
X1024828Y170800D03*
X1020828Y161800D03*
X1016828Y170800D03*
X1012828Y161800D03*
X1008828Y170800D03*
X1004828Y161800D03*
X996828Y161800D03*
X992828Y170800D03*
X988828Y161800D03*
X984828Y170800D03*
X980828Y161800D03*
X973828Y170800D03*
D13*
X1016828Y104300D03*
X1016828Y112300D03*
X1016828Y120300D03*
X1016828Y128300D03*
X1016828Y136300D03*
X1016828Y144300D03*
D11*
X1094708Y195100D03*
X1084708Y195100D03*
X1094708Y184940D03*
X1084708Y184940D03*
D14*
X1106068Y82750D03*
X1106068Y107750D03*
D11*
X1111068Y119380D03*
X1101068Y119380D03*
X1111068Y71120D03*
X1101068Y71120D03*
X1101068Y138430D03*
X1111068Y138430D03*
X1101068Y148590D03*
X1111068Y148590D03*
X1101068Y158750D03*
X1111068Y158750D03*
X1019628Y196680D03*
X1009628Y196680D03*
X1019628Y186520D03*
X1009628Y186520D03*
D15*
X913028Y87700D03*
X913028Y64700D03*
D10*
X1143778Y206500D02*
X1143778Y213500D01*
X1143778Y206500D02*
X1136778Y206500D01*
X1136778Y213500D01*
X1143778Y213500D01*
X1143778Y209350D02*
X1136778Y209350D01*
X1136778Y212200D02*
X1143778Y212200D01*
X1161318Y213500D02*
X1161318Y206500D01*
X1154318Y206500D01*
X1154318Y213500D01*
X1161318Y213500D01*
X1161318Y209350D02*
X1154318Y209350D01*
X1154318Y212200D02*
X1161318Y212200D01*
D11*
X1198178Y210000D03*
X1208178Y210000D03*
D12*
X1198898Y77800D03*
X1209898Y77800D03*
X1217898Y77800D03*
X1233898Y77800D03*
X1237898Y86800D03*
X1241898Y77800D03*
X1245898Y86800D03*
X1249898Y77800D03*
X1253898Y86800D03*
X1257898Y77800D03*
X1261898Y86800D03*
X1265898Y77800D03*
X1269898Y86800D03*
X1273898Y77800D03*
D13*
X1307898Y76300D03*
X1307898Y84300D03*
X1307898Y92300D03*
X1307898Y100300D03*
X1298898Y104300D03*
X1307898Y108300D03*
X1298898Y112300D03*
X1307898Y116300D03*
X1298898Y120300D03*
X1307898Y124300D03*
X1298898Y128300D03*
X1307898Y132300D03*
X1298898Y136300D03*
X1307898Y140300D03*
X1298898Y144300D03*
X1307898Y148300D03*
X1307898Y156300D03*
X1307898Y164300D03*
X1307898Y172300D03*
D12*
X1297898Y170800D03*
X1289898Y170800D03*
X1285898Y161800D03*
X1281898Y170800D03*
X1277898Y161800D03*
X1273898Y170800D03*
X1269898Y161800D03*
X1265898Y170800D03*
X1261898Y161800D03*
X1253898Y161800D03*
X1249898Y170800D03*
X1245898Y161800D03*
X1241898Y170800D03*
X1237898Y161800D03*
X1233898Y170800D03*
X1229898Y161800D03*
X1221898Y161800D03*
X1217898Y170800D03*
X1213898Y161800D03*
X1209898Y170800D03*
X1205898Y161800D03*
X1198898Y170800D03*
D13*
X1241898Y104300D03*
X1241898Y112300D03*
X1241898Y120300D03*
X1241898Y128300D03*
X1241898Y136300D03*
X1241898Y144300D03*
D11*
X1319778Y195100D03*
X1309778Y195100D03*
X1319778Y184940D03*
X1309778Y184940D03*
D14*
X1331138Y82750D03*
X1331138Y107750D03*
D11*
X1336138Y119380D03*
X1326138Y119380D03*
X1336138Y71120D03*
X1326138Y71120D03*
X1326138Y138430D03*
X1336138Y138430D03*
X1326138Y148590D03*
X1336138Y148590D03*
X1326138Y158750D03*
X1336138Y158750D03*
X1244698Y196680D03*
X1234698Y196680D03*
X1244698Y186520D03*
X1234698Y186520D03*
D15*
X1138098Y87700D03*
X1138098Y64700D03*
D10*
X1368873Y206500D02*
X1368873Y213500D01*
X1368873Y206500D02*
X1361873Y206500D01*
X1361873Y213500D01*
X1368873Y213500D01*
X1368873Y209350D02*
X1361873Y209350D01*
X1361873Y212200D02*
X1368873Y212200D01*
X1386413Y213500D02*
X1386413Y206500D01*
X1379413Y206500D01*
X1379413Y213500D01*
X1386413Y213500D01*
X1386413Y209350D02*
X1379413Y209350D01*
X1379413Y212200D02*
X1386413Y212200D01*
D11*
X1423273Y210000D03*
X1433273Y210000D03*
D12*
X1423993Y77800D03*
X1434993Y77800D03*
X1442993Y77800D03*
X1458993Y77800D03*
X1462993Y86800D03*
X1466993Y77800D03*
X1470993Y86800D03*
X1474993Y77800D03*
X1478993Y86800D03*
X1482993Y77800D03*
X1486993Y86800D03*
X1490993Y77800D03*
X1494993Y86800D03*
X1498993Y77800D03*
D13*
X1532993Y76300D03*
X1532993Y84300D03*
X1532993Y92300D03*
X1532993Y100300D03*
X1523993Y104300D03*
X1532993Y108300D03*
X1523993Y112300D03*
X1532993Y116300D03*
X1523993Y120300D03*
X1532993Y124300D03*
X1523993Y128300D03*
X1532993Y132300D03*
X1523993Y136300D03*
X1532993Y140300D03*
X1523993Y144300D03*
X1532993Y148300D03*
X1532993Y156300D03*
X1532993Y164300D03*
X1532993Y172300D03*
D12*
X1522993Y170800D03*
X1514993Y170800D03*
X1510993Y161800D03*
X1506993Y170800D03*
X1502993Y161800D03*
X1498993Y170800D03*
X1494993Y161800D03*
X1490993Y170800D03*
X1486993Y161800D03*
X1478993Y161800D03*
X1474993Y170800D03*
X1470993Y161800D03*
X1466993Y170800D03*
X1462993Y161800D03*
X1458993Y170800D03*
X1454993Y161800D03*
X1446993Y161800D03*
X1442993Y170800D03*
X1438993Y161800D03*
X1434993Y170800D03*
X1430993Y161800D03*
X1423993Y170800D03*
D13*
X1466993Y104300D03*
X1466993Y112300D03*
X1466993Y120300D03*
X1466993Y128300D03*
X1466993Y136300D03*
X1466993Y144300D03*
D11*
X1544873Y195100D03*
X1534873Y195100D03*
X1544873Y184940D03*
X1534873Y184940D03*
D14*
X1556233Y82750D03*
X1556233Y107750D03*
D11*
X1561233Y119380D03*
X1551233Y119380D03*
X1561233Y71120D03*
X1551233Y71120D03*
X1551233Y138430D03*
X1561233Y138430D03*
X1551233Y148590D03*
X1561233Y148590D03*
X1551233Y158750D03*
X1561233Y158750D03*
X1469793Y196680D03*
X1459793Y196680D03*
X1469793Y186520D03*
X1459793Y186520D03*
D15*
X1363193Y87700D03*
X1363193Y64700D03*
D10*
X1593942Y206500D02*
X1593942Y213500D01*
X1593942Y206500D02*
X1586942Y206500D01*
X1586942Y213500D01*
X1593942Y213500D01*
X1593942Y209350D02*
X1586942Y209350D01*
X1586942Y212200D02*
X1593942Y212200D01*
X1611482Y213500D02*
X1611482Y206500D01*
X1604482Y206500D01*
X1604482Y213500D01*
X1611482Y213500D01*
X1611482Y209350D02*
X1604482Y209350D01*
X1604482Y212200D02*
X1611482Y212200D01*
D11*
X1648342Y210000D03*
X1658342Y210000D03*
D12*
X1649062Y77800D03*
X1660062Y77800D03*
X1668062Y77800D03*
X1684062Y77800D03*
X1688062Y86800D03*
X1692062Y77800D03*
X1696062Y86800D03*
X1700062Y77800D03*
X1704062Y86800D03*
X1708062Y77800D03*
X1712062Y86800D03*
X1716062Y77800D03*
X1720062Y86800D03*
X1724062Y77800D03*
D13*
X1758062Y76300D03*
X1758062Y84300D03*
X1758062Y92300D03*
X1758062Y100300D03*
X1749062Y104300D03*
X1758062Y108300D03*
X1749062Y112300D03*
X1758062Y116300D03*
X1749062Y120300D03*
X1758062Y124300D03*
X1749062Y128300D03*
X1758062Y132300D03*
X1749062Y136300D03*
X1758062Y140300D03*
X1749062Y144300D03*
X1758062Y148300D03*
X1758062Y156300D03*
X1758062Y164300D03*
X1758062Y172300D03*
D12*
X1748062Y170800D03*
X1740062Y170800D03*
X1736062Y161800D03*
X1732062Y170800D03*
X1728062Y161800D03*
X1724062Y170800D03*
X1720062Y161800D03*
X1716062Y170800D03*
X1712062Y161800D03*
X1704062Y161800D03*
X1700062Y170800D03*
X1696062Y161800D03*
X1692062Y170800D03*
X1688062Y161800D03*
X1684062Y170800D03*
X1680062Y161800D03*
X1672062Y161800D03*
X1668062Y170800D03*
X1664062Y161800D03*
X1660062Y170800D03*
X1656062Y161800D03*
X1649062Y170800D03*
D13*
X1692062Y104300D03*
X1692062Y112300D03*
X1692062Y120300D03*
X1692062Y128300D03*
X1692062Y136300D03*
X1692062Y144300D03*
D11*
X1769942Y195100D03*
X1759942Y195100D03*
X1769942Y184940D03*
X1759942Y184940D03*
D14*
X1781302Y82750D03*
X1781302Y107750D03*
D11*
X1786302Y119380D03*
X1776302Y119380D03*
X1786302Y71120D03*
X1776302Y71120D03*
X1776302Y138430D03*
X1786302Y138430D03*
X1776302Y148590D03*
X1786302Y148590D03*
X1776302Y158750D03*
X1786302Y158750D03*
X1694862Y196680D03*
X1684862Y196680D03*
X1694862Y186520D03*
X1684862Y186520D03*
D15*
X1588262Y87700D03*
X1588262Y64700D03*
D10*
X201609Y485000D02*
X201609Y492000D01*
X208609Y492000D01*
X208609Y485000D01*
X201609Y485000D01*
X201609Y487850D02*
X208609Y487850D01*
X208609Y490700D02*
X201609Y490700D01*
X184069Y492000D02*
X184069Y485000D01*
X184069Y492000D02*
X191069Y492000D01*
X191069Y485000D01*
X184069Y485000D01*
X184069Y487850D02*
X191069Y487850D01*
X191069Y490700D02*
X184069Y490700D01*
D11*
X147209Y488500D03*
X137209Y488500D03*
D12*
X146489Y620700D03*
X135489Y620700D03*
X127489Y620700D03*
X111489Y620700D03*
X107489Y611700D03*
X103489Y620700D03*
X99489Y611700D03*
X95489Y620700D03*
X91489Y611700D03*
X87489Y620700D03*
X83489Y611700D03*
X79489Y620700D03*
X75489Y611700D03*
X71489Y620700D03*
D13*
X37489Y622200D03*
X37489Y614200D03*
X37489Y606200D03*
X37489Y598200D03*
X46489Y594200D03*
X37489Y590200D03*
X46489Y586200D03*
X37489Y582200D03*
X46489Y578200D03*
X37489Y574200D03*
X46489Y570200D03*
X37489Y566200D03*
X46489Y562200D03*
X37489Y558200D03*
X46489Y554200D03*
X37489Y550200D03*
X37489Y542200D03*
X37489Y534200D03*
X37489Y526200D03*
D12*
X47489Y527700D03*
X55489Y527700D03*
X59489Y536700D03*
X63489Y527700D03*
X67489Y536700D03*
X71489Y527700D03*
X75489Y536700D03*
X79489Y527700D03*
X83489Y536700D03*
X91489Y536700D03*
X95489Y527700D03*
X99489Y536700D03*
X103489Y527700D03*
X107489Y536700D03*
X111489Y527700D03*
X115489Y536700D03*
X123489Y536700D03*
X127489Y527700D03*
X131489Y536700D03*
X135489Y527700D03*
X139489Y536700D03*
X146489Y527700D03*
D13*
X103489Y594200D03*
X103489Y586200D03*
X103489Y578200D03*
X103489Y570200D03*
X103489Y562200D03*
X103489Y554200D03*
D11*
X25609Y503400D03*
X35609Y503400D03*
X25609Y513560D03*
X35609Y513560D03*
D14*
X14249Y615750D03*
X14249Y590750D03*
D11*
X9249Y579120D03*
X19249Y579120D03*
X9249Y627380D03*
X19249Y627380D03*
X19249Y560070D03*
X9249Y560070D03*
X19249Y549910D03*
X9249Y549910D03*
X19249Y539750D03*
X9249Y539750D03*
X100689Y501820D03*
X110689Y501820D03*
X100689Y511980D03*
X110689Y511980D03*
D15*
X207289Y610800D03*
X207289Y633800D03*
D10*
X426704Y492000D02*
X426704Y485000D01*
X426704Y492000D02*
X433704Y492000D01*
X433704Y485000D01*
X426704Y485000D01*
X426704Y487850D02*
X433704Y487850D01*
X433704Y490700D02*
X426704Y490700D01*
X409164Y492000D02*
X409164Y485000D01*
X409164Y492000D02*
X416164Y492000D01*
X416164Y485000D01*
X409164Y485000D01*
X409164Y487850D02*
X416164Y487850D01*
X416164Y490700D02*
X409164Y490700D01*
D11*
X372304Y488500D03*
X362304Y488500D03*
D12*
X371584Y620700D03*
X360584Y620700D03*
X352584Y620700D03*
X336584Y620700D03*
X332584Y611700D03*
X328584Y620700D03*
X324584Y611700D03*
X320584Y620700D03*
X316584Y611700D03*
X312584Y620700D03*
X308584Y611700D03*
X304584Y620700D03*
X300584Y611700D03*
X296584Y620700D03*
D13*
X262584Y622200D03*
X262584Y614200D03*
X262584Y606200D03*
X262584Y598200D03*
X271584Y594200D03*
X262584Y590200D03*
X271584Y586200D03*
X262584Y582200D03*
X271584Y578200D03*
X262584Y574200D03*
X271584Y570200D03*
X262584Y566200D03*
X271584Y562200D03*
X262584Y558200D03*
X271584Y554200D03*
X262584Y550200D03*
X262584Y542200D03*
X262584Y534200D03*
X262584Y526200D03*
D12*
X272584Y527700D03*
X280584Y527700D03*
X284584Y536700D03*
X288584Y527700D03*
X292584Y536700D03*
X296584Y527700D03*
X300584Y536700D03*
X304584Y527700D03*
X308584Y536700D03*
X316584Y536700D03*
X320584Y527700D03*
X324584Y536700D03*
X328584Y527700D03*
X332584Y536700D03*
X336584Y527700D03*
X340584Y536700D03*
X348584Y536700D03*
X352584Y527700D03*
X356584Y536700D03*
X360584Y527700D03*
X364584Y536700D03*
X371584Y527700D03*
D13*
X328584Y594200D03*
X328584Y586200D03*
X328584Y578200D03*
X328584Y570200D03*
X328584Y562200D03*
X328584Y554200D03*
D11*
X250704Y503400D03*
X260704Y503400D03*
X250704Y513560D03*
X260704Y513560D03*
D14*
X239344Y615750D03*
X239344Y590750D03*
D11*
X234344Y579120D03*
X244344Y579120D03*
X234344Y627380D03*
X244344Y627380D03*
X244344Y560070D03*
X234344Y560070D03*
X244344Y549910D03*
X234344Y549910D03*
X244344Y539750D03*
X234344Y539750D03*
X325784Y501820D03*
X335784Y501820D03*
X325784Y511980D03*
X335784Y511980D03*
D15*
X432384Y610800D03*
X432384Y633800D03*
D10*
X651774Y492000D02*
X651774Y485000D01*
X651774Y492000D02*
X658774Y492000D01*
X658774Y485000D01*
X651774Y485000D01*
X651774Y487850D02*
X658774Y487850D01*
X658774Y490700D02*
X651774Y490700D01*
X634234Y492000D02*
X634234Y485000D01*
X634234Y492000D02*
X641234Y492000D01*
X641234Y485000D01*
X634234Y485000D01*
X634234Y487850D02*
X641234Y487850D01*
X641234Y490700D02*
X634234Y490700D01*
D11*
X597374Y488500D03*
X587374Y488500D03*
D12*
X596654Y620700D03*
X585654Y620700D03*
X577654Y620700D03*
X561654Y620700D03*
X557654Y611700D03*
X553654Y620700D03*
X549654Y611700D03*
X545654Y620700D03*
X541654Y611700D03*
X537654Y620700D03*
X533654Y611700D03*
X529654Y620700D03*
X525654Y611700D03*
X521654Y620700D03*
D13*
X487654Y622200D03*
X487654Y614200D03*
X487654Y606200D03*
X487654Y598200D03*
X496654Y594200D03*
X487654Y590200D03*
X496654Y586200D03*
X487654Y582200D03*
X496654Y578200D03*
X487654Y574200D03*
X496654Y570200D03*
X487654Y566200D03*
X496654Y562200D03*
X487654Y558200D03*
X496654Y554200D03*
X487654Y550200D03*
X487654Y542200D03*
X487654Y534200D03*
X487654Y526200D03*
D12*
X497654Y527700D03*
X505654Y527700D03*
X509654Y536700D03*
X513654Y527700D03*
X517654Y536700D03*
X521654Y527700D03*
X525654Y536700D03*
X529654Y527700D03*
X533654Y536700D03*
X541654Y536700D03*
X545654Y527700D03*
X549654Y536700D03*
X553654Y527700D03*
X557654Y536700D03*
X561654Y527700D03*
X565654Y536700D03*
X573654Y536700D03*
X577654Y527700D03*
X581654Y536700D03*
X585654Y527700D03*
X589654Y536700D03*
X596654Y527700D03*
D13*
X553654Y594200D03*
X553654Y586200D03*
X553654Y578200D03*
X553654Y570200D03*
X553654Y562200D03*
X553654Y554200D03*
D11*
X475774Y503400D03*
X485774Y503400D03*
X475774Y513560D03*
X485774Y513560D03*
D14*
X464414Y615750D03*
X464414Y590750D03*
D11*
X459414Y579120D03*
X469414Y579120D03*
X459414Y627380D03*
X469414Y627380D03*
X469414Y560070D03*
X459414Y560070D03*
X469414Y549910D03*
X459414Y549910D03*
X469414Y539750D03*
X459414Y539750D03*
X550854Y501820D03*
X560854Y501820D03*
X550854Y511980D03*
X560854Y511980D03*
D15*
X657454Y610800D03*
X657454Y633800D03*
D10*
X876868Y492000D02*
X876868Y485000D01*
X876868Y492000D02*
X883868Y492000D01*
X883868Y485000D01*
X876868Y485000D01*
X876868Y487850D02*
X883868Y487850D01*
X883868Y490700D02*
X876868Y490700D01*
X859328Y492000D02*
X859328Y485000D01*
X859328Y492000D02*
X866328Y492000D01*
X866328Y485000D01*
X859328Y485000D01*
X859328Y487850D02*
X866328Y487850D01*
X866328Y490700D02*
X859328Y490700D01*
D11*
X822468Y488500D03*
X812468Y488500D03*
D12*
X821748Y620700D03*
X810748Y620700D03*
X802748Y620700D03*
X786748Y620700D03*
X782748Y611700D03*
X778748Y620700D03*
X774748Y611700D03*
X770748Y620700D03*
X766748Y611700D03*
X762748Y620700D03*
X758748Y611700D03*
X754748Y620700D03*
X750748Y611700D03*
X746748Y620700D03*
D13*
X712748Y622200D03*
X712748Y614200D03*
X712748Y606200D03*
X712748Y598200D03*
X721748Y594200D03*
X712748Y590200D03*
X721748Y586200D03*
X712748Y582200D03*
X721748Y578200D03*
X712748Y574200D03*
X721748Y570200D03*
X712748Y566200D03*
X721748Y562200D03*
X712748Y558200D03*
X721748Y554200D03*
X712748Y550200D03*
X712748Y542200D03*
X712748Y534200D03*
X712748Y526200D03*
D12*
X722748Y527700D03*
X730748Y527700D03*
X734748Y536700D03*
X738748Y527700D03*
X742748Y536700D03*
X746748Y527700D03*
X750748Y536700D03*
X754748Y527700D03*
X758748Y536700D03*
X766748Y536700D03*
X770748Y527700D03*
X774748Y536700D03*
X778748Y527700D03*
X782748Y536700D03*
X786748Y527700D03*
X790748Y536700D03*
X798748Y536700D03*
X802748Y527700D03*
X806748Y536700D03*
X810748Y527700D03*
X814748Y536700D03*
X821748Y527700D03*
D13*
X778748Y594200D03*
X778748Y586200D03*
X778748Y578200D03*
X778748Y570200D03*
X778748Y562200D03*
X778748Y554200D03*
D11*
X700868Y503400D03*
X710868Y503400D03*
X700868Y513560D03*
X710868Y513560D03*
D14*
X689508Y615750D03*
X689508Y590750D03*
D11*
X684508Y579120D03*
X694508Y579120D03*
X684508Y627380D03*
X694508Y627380D03*
X694508Y560070D03*
X684508Y560070D03*
X694508Y549910D03*
X684508Y549910D03*
X694508Y539750D03*
X684508Y539750D03*
X775948Y501820D03*
X785948Y501820D03*
X775948Y511980D03*
X785948Y511980D03*
D15*
X882548Y610800D03*
X882548Y633800D03*
D10*
X1101938Y492000D02*
X1101938Y485000D01*
X1101938Y492000D02*
X1108938Y492000D01*
X1108938Y485000D01*
X1101938Y485000D01*
X1101938Y487850D02*
X1108938Y487850D01*
X1108938Y490700D02*
X1101938Y490700D01*
X1084398Y492000D02*
X1084398Y485000D01*
X1084398Y492000D02*
X1091398Y492000D01*
X1091398Y485000D01*
X1084398Y485000D01*
X1084398Y487850D02*
X1091398Y487850D01*
X1091398Y490700D02*
X1084398Y490700D01*
D11*
X1047538Y488500D03*
X1037538Y488500D03*
D12*
X1046818Y620700D03*
X1035818Y620700D03*
X1027818Y620700D03*
X1011818Y620700D03*
X1007818Y611700D03*
X1003818Y620700D03*
X999818Y611700D03*
X995818Y620700D03*
X991818Y611700D03*
X987818Y620700D03*
X983818Y611700D03*
X979818Y620700D03*
X975818Y611700D03*
X971818Y620700D03*
D13*
X937818Y622200D03*
X937818Y614200D03*
X937818Y606200D03*
X937818Y598200D03*
X946818Y594200D03*
X937818Y590200D03*
X946818Y586200D03*
X937818Y582200D03*
X946818Y578200D03*
X937818Y574200D03*
X946818Y570200D03*
X937818Y566200D03*
X946818Y562200D03*
X937818Y558200D03*
X946818Y554200D03*
X937818Y550200D03*
X937818Y542200D03*
X937818Y534200D03*
X937818Y526200D03*
D12*
X947818Y527700D03*
X955818Y527700D03*
X959818Y536700D03*
X963818Y527700D03*
X967818Y536700D03*
X971818Y527700D03*
X975818Y536700D03*
X979818Y527700D03*
X983818Y536700D03*
X991818Y536700D03*
X995818Y527700D03*
X999818Y536700D03*
X1003818Y527700D03*
X1007818Y536700D03*
X1011818Y527700D03*
X1015818Y536700D03*
X1023818Y536700D03*
X1027818Y527700D03*
X1031818Y536700D03*
X1035818Y527700D03*
X1039818Y536700D03*
X1046818Y527700D03*
D13*
X1003818Y594200D03*
X1003818Y586200D03*
X1003818Y578200D03*
X1003818Y570200D03*
X1003818Y562200D03*
X1003818Y554200D03*
D11*
X925938Y503400D03*
X935938Y503400D03*
X925938Y513560D03*
X935938Y513560D03*
D14*
X914578Y615750D03*
X914578Y590750D03*
D11*
X909578Y579120D03*
X919578Y579120D03*
X909578Y627380D03*
X919578Y627380D03*
X919578Y560070D03*
X909578Y560070D03*
X919578Y549910D03*
X909578Y549910D03*
X919578Y539750D03*
X909578Y539750D03*
X1001018Y501820D03*
X1011018Y501820D03*
X1001018Y511980D03*
X1011018Y511980D03*
D15*
X1107618Y610800D03*
X1107618Y633800D03*
D10*
X1327033Y492000D02*
X1327033Y485000D01*
X1327033Y492000D02*
X1334033Y492000D01*
X1334033Y485000D01*
X1327033Y485000D01*
X1327033Y487850D02*
X1334033Y487850D01*
X1334033Y490700D02*
X1327033Y490700D01*
X1309493Y492000D02*
X1309493Y485000D01*
X1309493Y492000D02*
X1316493Y492000D01*
X1316493Y485000D01*
X1309493Y485000D01*
X1309493Y487850D02*
X1316493Y487850D01*
X1316493Y490700D02*
X1309493Y490700D01*
D11*
X1272633Y488500D03*
X1262633Y488500D03*
D12*
X1271913Y620700D03*
X1260913Y620700D03*
X1252913Y620700D03*
X1236913Y620700D03*
X1232913Y611700D03*
X1228913Y620700D03*
X1224913Y611700D03*
X1220913Y620700D03*
X1216913Y611700D03*
X1212913Y620700D03*
X1208913Y611700D03*
X1204913Y620700D03*
X1200913Y611700D03*
X1196913Y620700D03*
D13*
X1162913Y622200D03*
X1162913Y614200D03*
X1162913Y606200D03*
X1162913Y598200D03*
X1171913Y594200D03*
X1162913Y590200D03*
X1171913Y586200D03*
X1162913Y582200D03*
X1171913Y578200D03*
X1162913Y574200D03*
X1171913Y570200D03*
X1162913Y566200D03*
X1171913Y562200D03*
X1162913Y558200D03*
X1171913Y554200D03*
X1162913Y550200D03*
X1162913Y542200D03*
X1162913Y534200D03*
X1162913Y526200D03*
D12*
X1172913Y527700D03*
X1180913Y527700D03*
X1184913Y536700D03*
X1188913Y527700D03*
X1192913Y536700D03*
X1196913Y527700D03*
X1200913Y536700D03*
X1204913Y527700D03*
X1208913Y536700D03*
X1216913Y536700D03*
X1220913Y527700D03*
X1224913Y536700D03*
X1228913Y527700D03*
X1232913Y536700D03*
X1236913Y527700D03*
X1240913Y536700D03*
X1248913Y536700D03*
X1252913Y527700D03*
X1256913Y536700D03*
X1260913Y527700D03*
X1264913Y536700D03*
X1271913Y527700D03*
D13*
X1228913Y594200D03*
X1228913Y586200D03*
X1228913Y578200D03*
X1228913Y570200D03*
X1228913Y562200D03*
X1228913Y554200D03*
D11*
X1151033Y503400D03*
X1161033Y503400D03*
X1151033Y513560D03*
X1161033Y513560D03*
D14*
X1139673Y615750D03*
X1139673Y590750D03*
D11*
X1134673Y579120D03*
X1144673Y579120D03*
X1134673Y627380D03*
X1144673Y627380D03*
X1144673Y560070D03*
X1134673Y560070D03*
X1144673Y549910D03*
X1134673Y549910D03*
X1144673Y539750D03*
X1134673Y539750D03*
X1226113Y501820D03*
X1236113Y501820D03*
X1226113Y511980D03*
X1236113Y511980D03*
D15*
X1332713Y610800D03*
X1332713Y633800D03*
D10*
X1552102Y492000D02*
X1552102Y485000D01*
X1552102Y492000D02*
X1559102Y492000D01*
X1559102Y485000D01*
X1552102Y485000D01*
X1552102Y487850D02*
X1559102Y487850D01*
X1559102Y490700D02*
X1552102Y490700D01*
X1534562Y492000D02*
X1534562Y485000D01*
X1534562Y492000D02*
X1541562Y492000D01*
X1541562Y485000D01*
X1534562Y485000D01*
X1534562Y487850D02*
X1541562Y487850D01*
X1541562Y490700D02*
X1534562Y490700D01*
D11*
X1497702Y488500D03*
X1487702Y488500D03*
D12*
X1496982Y620700D03*
X1485982Y620700D03*
X1477982Y620700D03*
X1461982Y620700D03*
X1457982Y611700D03*
X1453982Y620700D03*
X1449982Y611700D03*
X1445982Y620700D03*
X1441982Y611700D03*
X1437982Y620700D03*
X1433982Y611700D03*
X1429982Y620700D03*
X1425982Y611700D03*
X1421982Y620700D03*
D13*
X1387982Y622200D03*
X1387982Y614200D03*
X1387982Y606200D03*
X1387982Y598200D03*
X1396982Y594200D03*
X1387982Y590200D03*
X1396982Y586200D03*
X1387982Y582200D03*
X1396982Y578200D03*
X1387982Y574200D03*
X1396982Y570200D03*
X1387982Y566200D03*
X1396982Y562200D03*
X1387982Y558200D03*
X1396982Y554200D03*
X1387982Y550200D03*
X1387982Y542200D03*
X1387982Y534200D03*
X1387982Y526200D03*
D12*
X1397982Y527700D03*
X1405982Y527700D03*
X1409982Y536700D03*
X1413982Y527700D03*
X1417982Y536700D03*
X1421982Y527700D03*
X1425982Y536700D03*
X1429982Y527700D03*
X1433982Y536700D03*
X1441982Y536700D03*
X1445982Y527700D03*
X1449982Y536700D03*
X1453982Y527700D03*
X1457982Y536700D03*
X1461982Y527700D03*
X1465982Y536700D03*
X1473982Y536700D03*
X1477982Y527700D03*
X1481982Y536700D03*
X1485982Y527700D03*
X1489982Y536700D03*
X1496982Y527700D03*
D13*
X1453982Y594200D03*
X1453982Y586200D03*
X1453982Y578200D03*
X1453982Y570200D03*
X1453982Y562200D03*
X1453982Y554200D03*
D11*
X1376102Y503400D03*
X1386102Y503400D03*
X1376102Y513560D03*
X1386102Y513560D03*
D14*
X1364742Y615750D03*
X1364742Y590750D03*
D11*
X1359742Y579120D03*
X1369742Y579120D03*
X1359742Y627380D03*
X1369742Y627380D03*
X1369742Y560070D03*
X1359742Y560070D03*
X1369742Y549910D03*
X1359742Y549910D03*
X1369742Y539750D03*
X1359742Y539750D03*
X1451182Y501820D03*
X1461182Y501820D03*
X1451182Y511980D03*
X1461182Y511980D03*
D15*
X1557782Y610800D03*
X1557782Y633800D03*
D10*
X1777171Y492000D02*
X1777171Y485000D01*
X1777171Y492000D02*
X1784171Y492000D01*
X1784171Y485000D01*
X1777171Y485000D01*
X1777171Y487850D02*
X1784171Y487850D01*
X1784171Y490700D02*
X1777171Y490700D01*
X1759631Y492000D02*
X1759631Y485000D01*
X1759631Y492000D02*
X1766631Y492000D01*
X1766631Y485000D01*
X1759631Y485000D01*
X1759631Y487850D02*
X1766631Y487850D01*
X1766631Y490700D02*
X1759631Y490700D01*
D11*
X1722771Y488500D03*
X1712771Y488500D03*
D12*
X1722051Y620700D03*
X1711051Y620700D03*
X1703051Y620700D03*
X1687051Y620700D03*
X1683051Y611700D03*
X1679051Y620700D03*
X1675051Y611700D03*
X1671051Y620700D03*
X1667051Y611700D03*
X1663051Y620700D03*
X1659051Y611700D03*
X1655051Y620700D03*
X1651051Y611700D03*
X1647051Y620700D03*
D13*
X1613051Y622200D03*
X1613051Y614200D03*
X1613051Y606200D03*
X1613051Y598200D03*
X1622051Y594200D03*
X1613051Y590200D03*
X1622051Y586200D03*
X1613051Y582200D03*
X1622051Y578200D03*
X1613051Y574200D03*
X1622051Y570200D03*
X1613051Y566200D03*
X1622051Y562200D03*
X1613051Y558200D03*
X1622051Y554200D03*
X1613051Y550200D03*
X1613051Y542200D03*
X1613051Y534200D03*
X1613051Y526200D03*
D12*
X1623051Y527700D03*
X1631051Y527700D03*
X1635051Y536700D03*
X1639051Y527700D03*
X1643051Y536700D03*
X1647051Y527700D03*
X1651051Y536700D03*
X1655051Y527700D03*
X1659051Y536700D03*
X1667051Y536700D03*
X1671051Y527700D03*
X1675051Y536700D03*
X1679051Y527700D03*
X1683051Y536700D03*
X1687051Y527700D03*
X1691051Y536700D03*
X1699051Y536700D03*
X1703051Y527700D03*
X1707051Y536700D03*
X1711051Y527700D03*
X1715051Y536700D03*
X1722051Y527700D03*
D13*
X1679051Y594200D03*
X1679051Y586200D03*
X1679051Y578200D03*
X1679051Y570200D03*
X1679051Y562200D03*
X1679051Y554200D03*
D11*
X1601171Y503400D03*
X1611171Y503400D03*
X1601171Y513560D03*
X1611171Y513560D03*
D14*
X1589811Y615750D03*
X1589811Y590750D03*
D11*
X1584811Y579120D03*
X1594811Y579120D03*
X1584811Y627380D03*
X1594811Y627380D03*
X1594811Y560070D03*
X1584811Y560070D03*
X1594811Y549910D03*
X1584811Y549910D03*
X1594811Y539750D03*
X1584811Y539750D03*
X1676251Y501820D03*
X1686251Y501820D03*
X1676251Y511980D03*
X1686251Y511980D03*
D15*
X1782851Y610800D03*
X1782851Y633800D03*
M02*
